<?xml version="1.0" encoding="UTF-8" standalone="no"?>
<svg
   xmlns:dc="http://purl.org/dc/elements/1.1/"
   xmlns:cc="http://creativecommons.org/ns#"
   xmlns:rdf="http://www.w3.org/1999/02/22-rdf-syntax-ns#"
   xmlns:svg="http://www.w3.org/2000/svg"
   xmlns="http://www.w3.org/2000/svg"
   version="1.1"
   id="svg4239"
   viewBox="0 0 1120 1120"
   height="1120"
   width="1120">
  <defs
     id="defs4241" />
  <metadata
     id="metadata4244">
    <rdf:RDF>
      <cc:Work
         rdf:about="">
        <dc:format>image/svg+xml</dc:format>
        <dc:type
           rdf:resource="http://purl.org/dc/dcmitype/StillImage" />
        <dc:title></dc:title>
      </cc:Work>
    </rdf:RDF>
  </metadata>
  <g
     transform="translate(-120,467.63775)"
     id="layer1">
    <g
       transform="matrix(4,0,0,4,-360,-1957.0866)"
       id="g6578">
      <rect
         style="color:#000000;clip-rule:nonzero;display:inline;overflow:visible;visibility:visible;opacity:1;isolation:auto;mix-blend-mode:normal;color-interpolation:sRGB;color-interpolation-filters:linearRGB;solid-color:#000000;solid-opacity:1;fill:#333333;fill-opacity:1;fill-rule:evenodd;stroke:none;stroke-width:2;stroke-linecap:round;stroke-linejoin:miter;stroke-miterlimit:4;stroke-dasharray:none;stroke-dashoffset:0;stroke-opacity:1;marker:none;color-rendering:auto;image-rendering:auto;shape-rendering:auto;text-rendering:auto;enable-background:accumulate"
         id="rect4868"
         width="280"
         height="280"
         x="120"
         y="372.36221" />
      <rect
         style="color:#000000;clip-rule:nonzero;display:inline;overflow:visible;visibility:visible;opacity:1;isolation:auto;mix-blend-mode:normal;color-interpolation:sRGB;color-interpolation-filters:linearRGB;solid-color:#000000;solid-opacity:1;fill:#ffffff;fill-opacity:1;fill-rule:evenodd;stroke:none;stroke-width:2;stroke-linecap:round;stroke-linejoin:miter;stroke-miterlimit:4;stroke-dasharray:none;stroke-dashoffset:0;stroke-opacity:1;marker:none;color-rendering:auto;image-rendering:auto;shape-rendering:auto;text-rendering:auto;enable-background:accumulate"
         id="rect6368"
         width="159.99998"
         height="119.99999"
         x="180"
         y="392.36224" />
      <rect
         y="506.36221"
         x="180"
         height="126.00002"
         width="159.99998"
         id="rect5292"
         style="color:#000000;clip-rule:nonzero;display:inline;overflow:visible;visibility:visible;opacity:1;isolation:auto;mix-blend-mode:normal;color-interpolation:sRGB;color-interpolation-filters:linearRGB;solid-color:#000000;solid-opacity:1;fill:#eeeeee;fill-opacity:1;fill-rule:evenodd;stroke:none;stroke-width:2;stroke-linecap:round;stroke-linejoin:miter;stroke-miterlimit:4;stroke-dasharray:none;stroke-dashoffset:0;stroke-opacity:1;marker:none;color-rendering:auto;image-rendering:auto;shape-rendering:auto;text-rendering:auto;enable-background:accumulate" />
      <path
         style="color:#000000;font-style:normal;font-variant:normal;font-weight:normal;font-stretch:normal;font-size:medium;line-height:normal;font-family:sans-serif;text-indent:0;text-align:start;text-decoration:none;text-decoration-line:none;text-decoration-style:solid;text-decoration-color:#000000;letter-spacing:normal;word-spacing:normal;text-transform:none;direction:ltr;block-progression:tb;writing-mode:lr-tb;baseline-shift:baseline;text-anchor:start;white-space:normal;clip-rule:nonzero;display:inline;overflow:visible;visibility:visible;opacity:1;isolation:auto;mix-blend-mode:normal;color-interpolation:sRGB;color-interpolation-filters:linearRGB;solid-color:#000000;solid-opacity:1;fill:#cfcfcf;fill-opacity:1;fill-rule:evenodd;stroke:none;stroke-width:1px;stroke-linecap:butt;stroke-linejoin:miter;stroke-miterlimit:4;stroke-dasharray:none;stroke-dashoffset:0;stroke-opacity:1;color-rendering:auto;image-rendering:auto;shape-rendering:auto;text-rendering:auto;enable-background:accumulate"
         d="m 138,134 0,30 -38,0 -2,0 -38,0 0,2.02148 38,-0.004 0,29.98242 -38,0 0,2 38,0 0,30 -38,0 0,2 38,0 0,30 2,0 0,-30 38,0 0,30 2,0 0,-30 38,0 0,30 2,0 0,-30 40,0 0,-2 -40,0 0,-30 40,0 0,-2 -40,0 0,-29.99414 40,-0.006 0,-2 -40,0 0,-30 -2,0 0,30 -38,0 0,-30 -2,0 z m 40,32.00586 0,29.99414 -38,0 0,-29.98828 38,-0.006 z m -40,0.006 0,29.98828 -38,0 0,-29.98438 38,-0.004 z M 100,198 l 38,0 0,30 -38,0 0,-30 z m 40,0 38,0 0,30 -38,0 0,-30 z"
         transform="translate(120,372.36221)"
         id="path6291" />
      <g
         id="g6355"
         transform="matrix(-0.86735281,0,0,0.86735281,312.75639,524.31742)">
        <circle
           id="circle6357"
           r="17.294001"
           cy="45.355"
           cx="51.787998"
           enable-background="new    "
           style="opacity:0.4;fill:#dd4815" />
        <circle
           id="circle6359"
           r="17.294001"
           cy="45.355"
           cx="51.787998"
           enable-background="new    "
           style="opacity:0.3;fill:#dd4815" />
        <path
           id="path6361"
           d="m 98.024,45.355 -7.753,-6.515 0,2.66 -29.771,0 c -1.48,-3.343 -4.821,-5.679 -8.713,-5.679 -5.265,0 -9.532,4.268 -9.532,9.533 0,5.264 4.268,9.531 9.532,9.531 3.89,0 7.229,-2.334 8.712,-5.675 l 29.771,0 0,2.656 7.754,-6.511 z"
           enable-background="new    "
           style="opacity:0.9;fill:#dd4815" />
      </g>
      <rect
         y="472.36221"
         x="186"
         height="28.000031"
         width="147.99998"
         id="rect6375"
         style="color:#000000;clip-rule:nonzero;display:inline;overflow:visible;visibility:visible;opacity:1;isolation:auto;mix-blend-mode:normal;color-interpolation:sRGB;color-interpolation-filters:linearRGB;solid-color:#000000;solid-opacity:1;fill:#efeeee;fill-opacity:1;fill-rule:evenodd;stroke:none;stroke-width:2;stroke-linecap:round;stroke-linejoin:miter;stroke-miterlimit:4;stroke-dasharray:none;stroke-dashoffset:0;stroke-opacity:1;marker:none;color-rendering:auto;image-rendering:auto;shape-rendering:auto;text-rendering:auto;enable-background:accumulate" />
    </g>
  </g>
</svg>
