<?xml version="1.0" encoding="UTF-8" standalone="no"?>
<svg
   xmlns:dc="http://purl.org/dc/elements/1.1/"
   xmlns:cc="http://creativecommons.org/ns#"
   xmlns:rdf="http://www.w3.org/1999/02/22-rdf-syntax-ns#"
   xmlns:svg="http://www.w3.org/2000/svg"
   xmlns="http://www.w3.org/2000/svg"
   version="1.1"
   id="svg4239"
   viewBox="0 0 1120 1120"
   height="1120"
   width="1120">
  <defs
     id="defs4241" />
  <metadata
     id="metadata4244">
    <rdf:RDF>
      <cc:Work
         rdf:about="">
        <dc:format>image/svg+xml</dc:format>
        <dc:type
           rdf:resource="http://purl.org/dc/dcmitype/StillImage" />
        <dc:title></dc:title>
      </cc:Work>
    </rdf:RDF>
  </metadata>
  <g
     transform="translate(-120,467.63775)"
     id="layer1">
    <text
       id="text4859"
       y="524.02234"
       x="222.53049"
       style="font-style:normal;font-variant:normal;font-weight:normal;font-stretch:normal;font-size:24px;line-height:125%;font-family:Ubuntu;-inkscape-font-specification:Ubuntu;letter-spacing:0px;word-spacing:0px;fill:#000000;fill-opacity:1;stroke:none;stroke-width:1px;stroke-linecap:butt;stroke-linejoin:miter;stroke-opacity:1"
       xml:space="preserve"><tspan
         y="524.02234"
         x="222.53049"
         id="tspan4861" /></text>
    <rect
       y="-467.63776"
       x="120"
       height="1120"
       width="1120"
       id="rect4868"
       style="color:#000000;clip-rule:nonzero;display:inline;overflow:visible;visibility:visible;opacity:1;isolation:auto;mix-blend-mode:normal;color-interpolation:sRGB;color-interpolation-filters:linearRGB;solid-color:#000000;solid-opacity:1;fill:#333333;fill-opacity:1;fill-rule:evenodd;stroke:none;stroke-width:2;stroke-linecap:round;stroke-linejoin:miter;stroke-miterlimit:4;stroke-dasharray:none;stroke-dashoffset:0;stroke-opacity:1;marker:none;color-rendering:auto;image-rendering:auto;shape-rendering:auto;text-rendering:auto;enable-background:accumulate" />
    <rect
       y="-387.63763"
       x="360"
       height="479.99997"
       width="639.99994"
       id="rect6368"
       style="color:#000000;clip-rule:nonzero;display:inline;overflow:visible;visibility:visible;opacity:1;isolation:auto;mix-blend-mode:normal;color-interpolation:sRGB;color-interpolation-filters:linearRGB;solid-color:#000000;solid-opacity:1;fill:#ffffff;fill-opacity:1;fill-rule:evenodd;stroke:none;stroke-width:2;stroke-linecap:round;stroke-linejoin:miter;stroke-miterlimit:4;stroke-dasharray:none;stroke-dashoffset:0;stroke-opacity:1;marker:none;color-rendering:auto;image-rendering:auto;shape-rendering:auto;text-rendering:auto;enable-background:accumulate" />
    <rect
       style="color:#000000;clip-rule:nonzero;display:inline;overflow:visible;visibility:visible;opacity:1;isolation:auto;mix-blend-mode:normal;color-interpolation:sRGB;color-interpolation-filters:linearRGB;solid-color:#000000;solid-opacity:1;fill:#eeeeee;fill-opacity:1;fill-rule:evenodd;stroke:none;stroke-width:2;stroke-linecap:round;stroke-linejoin:miter;stroke-miterlimit:4;stroke-dasharray:none;stroke-dashoffset:0;stroke-opacity:1;marker:none;color-rendering:auto;image-rendering:auto;shape-rendering:auto;text-rendering:auto;enable-background:accumulate"
       id="rect5292"
       width="639.99994"
       height="504.00009"
       x="360"
       y="68.362251" />
    <path
       id="path6291"
       transform="translate(120,-467.63775)"
       d="M 560 535.99609 L 552 536 L 552 656 L 400 656 L 392 656 L 240 656 L 240 664.08203 L 392 664.0625 L 392 784 L 240 784 L 240 792 L 392 792 L 392 912 L 240 912 L 240 920 L 392 920 L 392 1040 L 400 1039.9961 L 400 920 L 552 920 L 552 1040 L 560 1039.9961 L 560 920 L 712 920 L 712 1040 L 720 1040 L 720 920 L 880 920 L 880 912 L 720 912 L 720 792 L 880 792 L 880 784 L 720 784 L 720 664.01953 L 880 664 L 880 656 L 720 656 L 720 535.99609 L 712 536 L 712 656 L 560 656 L 560 535.99609 z M 712 664.02148 L 712 784 L 560 784 L 560 664.04102 L 712 664.02148 z M 552 664.04297 L 552 784 L 400 784 L 400 664.0625 L 552 664.04297 z M 400 792 L 552 792 L 552 912 L 400 912 L 400 792 z M 560 792 L 712 792 L 712 912 L 560 912 L 560 792 z "
       style="color:#000000;font-style:normal;font-variant:normal;font-weight:normal;font-stretch:normal;font-size:medium;line-height:normal;font-family:sans-serif;text-indent:0;text-align:start;text-decoration:none;text-decoration-line:none;text-decoration-style:solid;text-decoration-color:#000000;letter-spacing:normal;word-spacing:normal;text-transform:none;direction:ltr;block-progression:tb;writing-mode:lr-tb;baseline-shift:baseline;text-anchor:start;white-space:normal;clip-rule:nonzero;display:inline;overflow:visible;visibility:visible;opacity:1;isolation:auto;mix-blend-mode:normal;color-interpolation:sRGB;color-interpolation-filters:linearRGB;solid-color:#000000;solid-opacity:1;fill:#cfcfcf;fill-opacity:1;fill-rule:evenodd;stroke:none;stroke-width:1px;stroke-linecap:butt;stroke-linejoin:miter;stroke-miterlimit:4;stroke-dasharray:none;stroke-dashoffset:0;stroke-opacity:1;color-rendering:auto;image-rendering:auto;shape-rendering:auto;text-rendering:auto;enable-background:accumulate" />
    <rect
       style="color:#000000;clip-rule:nonzero;display:inline;overflow:visible;visibility:visible;opacity:1;isolation:auto;mix-blend-mode:normal;color-interpolation:sRGB;color-interpolation-filters:linearRGB;solid-color:#000000;solid-opacity:1;fill:#efeeee;fill-opacity:1;fill-rule:evenodd;stroke:none;stroke-width:2;stroke-linecap:round;stroke-linejoin:miter;stroke-miterlimit:4;stroke-dasharray:none;stroke-dashoffset:0;stroke-opacity:1;marker:none;color-rendering:auto;image-rendering:auto;shape-rendering:auto;text-rendering:auto;enable-background:accumulate"
       id="rect6375"
       width="591.99994"
       height="112.00012"
       x="384"
       y="-67.637749" />
    <g
       transform="matrix(4,0,0,4,-358.08086,-1959.5571)"
       id="text4863"
       style="font-style:normal;font-variant:normal;font-weight:normal;font-stretch:normal;font-size:24px;line-height:125%;font-family:Ubuntu;-inkscape-font-specification:Ubuntu;letter-spacing:0px;word-spacing:0px;fill:#000000;fill-opacity:1;stroke:none;stroke-width:1px;stroke-linecap:butt;stroke-linejoin:miter;stroke-opacity:1">
      <path
         id="path5216"
         d="m 209.73701,522.50629 0,-1.05469 4.60547,-4.60547 1.40625,1.40625 -2.73047,2.73047 14.28516,0 0,1.99219 -14.28516,0 2.73047,2.73047 -1.40625,1.40625 -4.60547,-4.60547 z" />
    </g>
    <g
       transform="matrix(3.4694112,0,0,3.4694112,381.94276,-19.62212)"
       id="g4960">
      <g
         id="g4946">
        <circle
           style="opacity:0.4;fill:#dd4815"
           enable-background="new    "
           cx="59.992001"
           cy="45.914001"
           r="17.294001"
           id="circle4948" />
        <circle
           style="opacity:0.3;fill:#dd4815"
           enable-background="new    "
           cx="59.992001"
           cy="45.914001"
           r="17.294001"
           id="circle4950" />
      </g>
      <circle
         style="fill:#dd4815"
         cx="60.032001"
         cy="45.952"
         r="9.5719995"
         id="circle4952" />
    </g>
    <g
       transform="matrix(4,0,0,4,-360,-1957.0866)"
       id="text5157"
       style="font-style:normal;font-variant:normal;font-weight:300;font-stretch:normal;font-size:20.54218483px;line-height:125%;font-family:Ubuntu;-inkscape-font-specification:'Ubuntu, Light';text-align:start;letter-spacing:0px;word-spacing:0px;writing-mode:lr-tb;text-anchor:start;fill:#dd4814;fill-opacity:1;stroke:none;stroke-width:1px;stroke-linecap:butt;stroke-linejoin:miter;stroke-opacity:1">
      <path
         id="path5199"
         d="m 252.22791,492.5557 q 1.95151,0 2.79374,-0.80114 0.84223,-0.82169 0.84223,-2.19801 0,-0.90386 -0.34922,-1.49958 -0.32867,-0.59573 -0.9244,-0.94494 -0.57518,-0.36976 -1.35578,-0.51356 -0.76006,-0.16434 -1.62283,-0.16434 l -0.20543,0 0,-1.10927 0.47247,0 q 0.55464,0 1.12982,-0.10272 0.59573,-0.12325 1.0682,-0.43138 0.49301,-0.30813 0.80114,-0.82169 0.32868,-0.51355 0.32868,-1.3147 0,-0.67789 -0.22597,-1.15036 -0.22596,-0.49301 -0.61626,-0.7806 -0.36976,-0.28759 -0.88332,-0.41085 -0.49301,-0.14379 -1.04765,-0.14379 -1.10928,0 -1.72554,0.30813 -0.61627,0.30813 -1.00657,0.57518 l -0.57518,-1.04765 q 0.20542,-0.1438 0.51356,-0.32868 0.32867,-0.18488 0.76006,-0.34921 0.43138,-0.16434 0.94494,-0.26705 0.53409,-0.12325 1.15036,-0.12325 1.06819,0 1.82825,0.26704 0.78061,0.26705 1.29416,0.76006 0.51356,0.47248 0.76006,1.15037 0.24651,0.65735 0.24651,1.43795 0,1.25307 -0.67789,2.05422 -0.65735,0.7806 -1.70501,1.12982 0.57519,0.14379 1.10928,0.45193 0.55464,0.28759 0.98603,0.76006 0.43138,0.45193 0.69843,1.10928 0.26705,0.65735 0.26705,1.54066 0,0.90386 -0.32867,1.66392 -0.30814,0.76006 -0.94494,1.33524 -0.61627,0.55464 -1.58175,0.88331 -0.96549,0.30814 -2.25964,0.30814 -0.6779,0 -1.25308,-0.10272 -0.55464,-0.0822 -0.98602,-0.20542 -0.43139,-0.12325 -0.73952,-0.2465 -0.28759,-0.12326 -0.43139,-0.20543 l 0.34922,-1.19144 q 0.12325,0.0822 0.41084,0.20542 0.2876,0.12325 0.6779,0.24651 0.41084,0.10271 0.90385,0.18488 0.51356,0.0822 1.10928,0.0822 z" />
      <path
         id="path5201"
         d="m 260.14596,486.96823 4.04681,0 0,-4.45765 1.19145,0 0,4.45765 4.04681,0 0,1.15036 -4.04681,0 0,4.4782 -1.19145,0 0,-4.4782 -4.04681,0 0,-1.15036 z" />
      <path
         id="path5203"
         d="m 272.78871,482.16136 q 1.23253,-0.43139 2.19802,-1.08874 0.96548,-0.67789 1.91042,-1.82825 l 0.94494,0 0,14.23573 -1.33524,0 0,-12.20206 q -0.22597,0.24651 -0.59573,0.51356 -0.34921,0.26705 -0.80114,0.5341 -0.45193,0.2465 -0.94494,0.49301 -0.49301,0.22596 -0.98603,0.36976 l -0.3903,-1.02711 z" />
      <path
         id="path5205"
         d="m 282.76098,486.88606 4.64253,0 0,1.29416 -4.64253,0 0,-1.29416 z" />
      <path
         id="path5207"
         d="m 288.9904,488.79648 q 0.36976,-0.98602 1.02711,-2.21855 0.67789,-1.23253 1.52012,-2.52669 0.84223,-1.29416 1.82825,-2.52669 0.98603,-1.25307 1.99259,-2.28018 l 1.39687,0 0,9.28507 1.76663,0 0,1.08873 -1.76663,0 0,3.86193 -1.3147,0 0,-3.86193 -6.45024,0 0,-0.82169 z m 6.45024,-0.26704 0,-7.78549 q -0.71897,0.73952 -1.45849,1.705 -0.73952,0.96548 -1.41741,2.01313 -0.65735,1.02711 -1.23253,2.07476 -0.57519,1.04766 -0.96549,1.9926 l 5.07392,0 z" />
      <path
         id="path5209"
         d="m 300.70875,486.96823 4.04681,0 0,-4.45765 1.19145,0 0,4.45765 4.04681,0 0,1.15036 -4.04681,0 0,4.4782 -1.19145,0 0,-4.4782 -4.04681,0 0,-1.15036 z" />
      <path
         id="path5211"
         d="m 313.3515,482.16136 q 1.23253,-0.43139 2.19802,-1.08874 0.96548,-0.67789 1.91042,-1.82825 l 0.94494,0 0,14.23573 -1.33524,0 0,-12.20206 q -0.22597,0.24651 -0.59573,0.51356 -0.34921,0.26705 -0.80114,0.5341 -0.45193,0.2465 -0.94494,0.49301 -0.49301,0.22596 -0.98603,0.36976 l -0.3903,-1.02711 z" />
      <path
         id="path5213"
         d="m 327.65817,492.5557 q 1.02711,0 1.705,-0.22596 0.69844,-0.24651 1.10928,-0.65735 0.41084,-0.41084 0.57518,-0.94494 0.18488,-0.55464 0.18488,-1.19145 0,-0.82168 -0.26705,-1.47903 -0.26705,-0.65735 -0.94494,-1.10928 -0.67789,-0.45193 -1.82825,-0.67789 -1.15036,-0.24651 -2.91699,-0.24651 0.12325,-1.04765 0.20542,-1.91042 0.0822,-0.88332 0.14379,-1.68446 0.0616,-0.82169 0.0822,-1.58175 0.0411,-0.7806 0.0616,-1.60229 l 6.40916,0 0,1.1709 -5.23826,0 q -0.0205,0.3903 -0.0616,1.00657 -0.0411,0.61627 -0.0822,1.27362 -0.0411,0.6368 -0.10271,1.23253 -0.0616,0.59572 -0.10271,0.94494 1.58175,0.0411 2.73211,0.3903 1.15036,0.34922 1.88988,0.94494 0.73952,0.59572 1.08873,1.43795 0.36976,0.84223 0.36976,1.86934 0,0.90386 -0.30813,1.68446 -0.28759,0.7806 -0.90386,1.35578 -0.61626,0.57519 -1.5612,0.90386 -0.94494,0.32868 -2.2391,0.32868 -0.65735,0 -1.23253,-0.10272 -0.55464,-0.0822 -1.00657,-0.20542 -0.43138,-0.12325 -0.73952,-0.2465 -0.30813,-0.12326 -0.45192,-0.20543 l 0.34921,-1.19144 q 0.12326,0.0822 0.41085,0.20542 0.30813,0.12325 0.69843,0.24651 0.41084,0.10271 0.90386,0.18488 0.51355,0.0822 1.06819,0.0822 z" />
    </g>
  </g>
</svg>
