<?xml version="1.0" encoding="UTF-8" standalone="no"?>
<svg
   xmlns:dc="http://purl.org/dc/elements/1.1/"
   xmlns:cc="http://creativecommons.org/ns#"
   xmlns:rdf="http://www.w3.org/1999/02/22-rdf-syntax-ns#"
   xmlns:svg="http://www.w3.org/2000/svg"
   xmlns="http://www.w3.org/2000/svg"
   version="1.1"
   id="svg4239"
   viewBox="0 0 1120 1120"
   height="1120"
   width="1120">
  <defs
     id="defs4241" />
  <metadata
     id="metadata4244">
    <rdf:RDF>
      <cc:Work
         rdf:about="">
        <dc:format>image/svg+xml</dc:format>
        <dc:type
           rdf:resource="http://purl.org/dc/dcmitype/StillImage" />
        <dc:title></dc:title>
      </cc:Work>
    </rdf:RDF>
  </metadata>
  <g
     transform="translate(-120,467.63775)"
     id="layer1">
    <g
       id="g7009">
      <rect
         style="color:#000000;clip-rule:nonzero;display:inline;overflow:visible;visibility:visible;opacity:1;isolation:auto;mix-blend-mode:normal;color-interpolation:sRGB;color-interpolation-filters:linearRGB;solid-color:#000000;solid-opacity:1;fill:#333333;fill-opacity:1;fill-rule:evenodd;stroke:none;stroke-width:2;stroke-linecap:round;stroke-linejoin:miter;stroke-miterlimit:4;stroke-dasharray:none;stroke-dashoffset:0;stroke-opacity:1;marker:none;color-rendering:auto;image-rendering:auto;shape-rendering:auto;text-rendering:auto;enable-background:accumulate"
         id="rect4868"
         width="1120"
         height="1120"
         x="120"
         y="-467.63776" />
      <rect
         style="color:#000000;clip-rule:nonzero;display:inline;overflow:visible;visibility:visible;opacity:1;isolation:auto;mix-blend-mode:normal;color-interpolation:sRGB;color-interpolation-filters:linearRGB;solid-color:#000000;solid-opacity:1;fill:#ffffff;fill-opacity:1;fill-rule:evenodd;stroke:none;stroke-width:2;stroke-linecap:round;stroke-linejoin:miter;stroke-miterlimit:4;stroke-dasharray:none;stroke-dashoffset:0;stroke-opacity:1;marker:none;color-rendering:auto;image-rendering:auto;shape-rendering:auto;text-rendering:auto;enable-background:accumulate"
         id="rect6368"
         width="800"
         height="160.00002"
         x="320"
         y="-227.63774" />
      <g
         style="font-style:normal;font-variant:normal;font-weight:300;font-stretch:normal;font-size:12.5px;line-height:125%;font-family:Ubuntu;-inkscape-font-specification:'Ubuntu, Light';text-align:start;letter-spacing:0px;word-spacing:0px;writing-mode:lr-tb;text-anchor:start;fill:#5d5d5d;fill-opacity:1;stroke:none;stroke-width:1px;stroke-linecap:butt;stroke-linejoin:miter;stroke-opacity:1"
         id="text6370"
         transform="matrix(4,0,0,4,-360,-1957.0866)">
        <path
           d="m 295.73779,455.48624 q 0.225,-0.6 0.625,-1.35 0.4125,-0.75 0.925,-1.5375 0.5125,-0.7875 1.1125,-1.5375 0.6,-0.7625 1.2125,-1.3875 l 0.85,0 0,5.65 1.075,0 0,0.6625 -1.075,0 0,2.35 -0.8,0 0,-2.35 -3.925,0 0,-0.5 z m 3.925,-0.1625 0,-4.7375 q -0.4375,0.45 -0.8875,1.0375 -0.45,0.5875 -0.8625,1.225 -0.4,0.625 -0.75,1.2625 -0.35,0.6375 -0.5875,1.2125 l 3.0875,0 z"
           id="path10111" />
        <path
           d="m 302.90596,454.01124 q 0,-2.2 0.725,-3.3625 0.725,-1.1625 2.0625,-1.1625 1.325,0 2.05,1.1625 0.7375,1.1625 0.7375,3.3625 0,2.1875 -0.7375,3.35 -0.725,1.1625 -2.05,1.1625 -1.325,0 -2.0625,-1.1625 -0.725,-1.1625 -0.725,-3.35 z m 4.6875,0 q 0,-0.75 -0.1,-1.425 -0.0875,-0.6875 -0.3125,-1.2125 -0.225,-0.525 -0.5875,-0.8375 -0.3625,-0.3125 -0.9,-0.3125 -0.55,0 -0.9125,0.3125 -0.3625,0.3125 -0.5875,0.8375 -0.2125,0.525 -0.3125,1.2125 -0.0875,0.675 -0.0875,1.425 0,0.75 0.0875,1.4375 0.1,0.675 0.3125,1.2 0.225,0.5125 0.5875,0.825 0.3625,0.3125 0.9125,0.3125 0.5375,0 0.9,-0.3125 0.3625,-0.3125 0.5875,-0.825 0.225,-0.525 0.3125,-1.2 0.1,-0.6875 0.1,-1.4375 z"
           id="path10113" />
        <path
           d="m 310.92412,454.37374 2.4625,0 0,-2.7125 0.725,0 0,2.7125 2.4625,0 0,0.7 -2.4625,0 0,2.725 -0.725,0 0,-2.725 -2.4625,0 0,-0.7 z"
           id="path10115" />
        <path
           d="m 323.97979,451.82374 q 0,0.4875 -0.175,0.925 -0.175,0.425 -0.475,0.825 -0.2875,0.4 -0.6625,0.775 -0.375,0.375 -0.7625,0.75 -0.325,0.3125 -0.6375,0.6375 -0.3,0.3125 -0.55,0.6375 -0.2375,0.3125 -0.3875,0.625 -0.1375,0.3 -0.1375,0.6 l 0,0.025 4.0875,0 0,0.7125 -4.9875,0 q 0,-0.025 -0.0125,-0.0875 0,-0.075 0,-0.2125 0,-0.5875 0.2125,-1.0875 0.2125,-0.5125 0.5375,-0.9625 0.3375,-0.45 0.7375,-0.8375 0.4125,-0.3875 0.7875,-0.75 0.3125,-0.3 0.5875,-0.575 0.2875,-0.2875 0.5,-0.5875 0.2125,-0.3 0.3375,-0.6375 0.125,-0.3375 0.125,-0.7375 0,-0.875 -0.475,-1.25 -0.4625,-0.3875 -1.175,-0.3875 -0.4,0 -0.7125,0.1 -0.3125,0.1 -0.55,0.2375 -0.225,0.125 -0.3875,0.2625 -0.1625,0.1375 -0.2375,0.2125 l -0.425,-0.5625 q 0.075,-0.0875 0.2625,-0.25 0.2,-0.175 0.4875,-0.3375 0.3,-0.1625 0.6875,-0.275 0.3875,-0.125 0.8625,-0.125 1.2625,0 1.9,0.625 0.6375,0.6125 0.6375,1.7125 z"
           id="path10117" />
        <path
           d="m 331.74834,455.68624 5.65,0 0,0.7 -5.65,0 0,-0.7 z m 0,-2.625 5.65,0 0,0.7 -5.65,0 0,-0.7 z"
           id="path10119" />
        <path
           d="m 344.69189,454.34624 q 0.315,-0.84 0.875,-1.89 0.5775,-1.05 1.295,-2.1525 0.7175,-1.1025 1.5575,-2.1525 0.84,-1.0675 1.6975,-1.9425 l 1.19,0 0,7.91 1.505,0 0,0.9275 -1.505,0 0,3.29 -1.12,0 0,-3.29 -5.495,0 0,-0.7 z m 5.495,-0.2275 0,-6.6325 q -0.6125,0.63 -1.2425,1.4525 -0.63,0.8225 -1.2075,1.715 -0.56,0.875 -1.05,1.7675 -0.49,0.8925 -0.8225,1.6975 l 4.3225,0 z"
           style="font-size:17.5px;fill:#5d5d5d;fill-opacity:1"
           id="path10121" />
        <path
           d="m 361.67482,449.21874 q 0,0.6825 -0.245,1.295 -0.245,0.595 -0.665,1.155 -0.4025,0.56 -0.9275,1.085 -0.525,0.525 -1.0675,1.05 -0.455,0.4375 -0.8925,0.8925 -0.42,0.4375 -0.77,0.8925 -0.3325,0.4375 -0.5425,0.875 -0.1925,0.42 -0.1925,0.84 l 0,0.035 5.7225,0 0,0.9975 -6.9825,0 q 0,-0.035 -0.0175,-0.1225 0,-0.105 0,-0.2975 0,-0.8225 0.2975,-1.5225 0.2975,-0.7175 0.7525,-1.3475 0.4725,-0.63 1.0325,-1.1725 0.5775,-0.5425 1.1025,-1.05 0.4375,-0.42 0.8225,-0.805 0.4025,-0.4025 0.7,-0.8225 0.2975,-0.42 0.4725,-0.8925 0.175,-0.4725 0.175,-1.0325 0,-1.225 -0.665,-1.75 -0.6475,-0.5425 -1.645,-0.5425 -0.56,0 -0.9975,0.14 -0.4375,0.14 -0.77,0.3325 -0.315,0.175 -0.5425,0.3675 -0.2275,0.1925 -0.3325,0.2975 l -0.595,-0.7875 q 0.105,-0.1225 0.3675,-0.35 0.28,-0.245 0.6825,-0.4725 0.42,-0.2275 0.9625,-0.385 0.5425,-0.175 1.2075,-0.175 1.7675,0 2.66,0.875 0.8925,0.8575 0.8925,2.3975 z"
           style="font-size:17.5px;fill:#5d5d5d;fill-opacity:1"
           id="path10123" />
      </g>
      <g
         id="g6399"
         transform="matrix(4.0246708,0,0,4.0246708,-921.01708,-2926.0566)">
        <circle
           style="opacity:0.3;fill:#dd4815"
           enable-background="new    "
           cx="380.64523"
           cy="690.34686"
           r="15.150758"
           id="circle6395" />
        <path
           style="opacity:0.9;fill:#dd4815"
           enable-background="new    "
           d="m 421.1512,690.34685 -6.79218,-5.70759 0,2.33034 -26.08148,0 c -1.29658,-2.9287 -4.22353,-4.9752 -7.6332,-4.9752 -4.61251,0 -8.3507,3.73907 -8.3507,8.35158 0,4.61163 3.73907,8.34982 8.3507,8.34982 3.40791,0 6.33311,-2.04475 7.63232,-4.9717 l 26.08149,0 0,2.32685 6.79305,-5.7041 z"
           id="path6397" />
      </g>
      <rect
         y="252.36238"
         x="320"
         height="159.99988"
         width="800"
         id="rect6403"
         style="color:#000000;clip-rule:nonzero;display:inline;overflow:visible;visibility:visible;opacity:1;isolation:auto;mix-blend-mode:normal;color-interpolation:sRGB;color-interpolation-filters:linearRGB;solid-color:#000000;solid-opacity:1;fill:#ffffff;fill-opacity:1;fill-rule:evenodd;stroke:none;stroke-width:2;stroke-linecap:round;stroke-linejoin:miter;stroke-miterlimit:4;stroke-dasharray:none;stroke-dashoffset:0;stroke-opacity:1;marker:none;color-rendering:auto;image-rendering:auto;shape-rendering:auto;text-rendering:auto;enable-background:accumulate" />
      <g
         style="font-style:normal;font-variant:normal;font-weight:300;font-stretch:normal;font-size:12.5px;line-height:125%;font-family:Ubuntu;-inkscape-font-specification:'Ubuntu, Light';text-align:start;letter-spacing:0px;word-spacing:0px;writing-mode:lr-tb;text-anchor:start;fill:#5d5d5d;fill-opacity:1;stroke:none;stroke-width:1px;stroke-linecap:butt;stroke-linejoin:miter;stroke-opacity:1"
         id="text6405"
         transform="matrix(4,0,0,4,-360,-1957.0866)">
        <path
           d="m 339.73779,573.84348 q 0.225,-0.6 0.625,-1.35 0.4125,-0.75 0.925,-1.5375 0.5125,-0.7875 1.1125,-1.5375 0.6,-0.7625 1.2125,-1.3875 l 0.85,0 0,5.65 1.075,0 0,0.6625 -1.075,0 0,2.35 -0.8,0 0,-2.35 -3.925,0 0,-0.5 z m 3.925,-0.1625 0,-4.7375 q -0.4375,0.45 -0.8875,1.0375 -0.45,0.5875 -0.8625,1.225 -0.4,0.625 -0.75,1.2625 -0.35,0.6375 -0.5875,1.2125 l 3.0875,0 z"
           id="path10126" />
        <path
           d="m 346.90596,572.36848 q 0,-2.2 0.725,-3.3625 0.725,-1.1625 2.0625,-1.1625 1.325,0 2.05,1.1625 0.7375,1.1625 0.7375,3.3625 0,2.1875 -0.7375,3.35 -0.725,1.1625 -2.05,1.1625 -1.325,0 -2.0625,-1.1625 -0.725,-1.1625 -0.725,-3.35 z m 4.6875,0 q 0,-0.75 -0.1,-1.425 -0.0875,-0.6875 -0.3125,-1.2125 -0.225,-0.525 -0.5875,-0.8375 -0.3625,-0.3125 -0.9,-0.3125 -0.55,0 -0.9125,0.3125 -0.3625,0.3125 -0.5875,0.8375 -0.2125,0.525 -0.3125,1.2125 -0.0875,0.675 -0.0875,1.425 0,0.75 0.0875,1.4375 0.1,0.675 0.3125,1.2 0.225,0.5125 0.5875,0.825 0.3625,0.3125 0.9125,0.3125 0.5375,0 0.9,-0.3125 0.3625,-0.3125 0.5875,-0.825 0.225,-0.525 0.3125,-1.2 0.1,-0.6875 0.1,-1.4375 z"
           id="path10128" />
        <path
           d="m 354.92412,572.73098 2.4625,0 0,-2.7125 0.725,0 0,2.7125 2.4625,0 0,0.7 -2.4625,0 0,2.725 -0.725,0 0,-2.725 -2.4625,0 0,-0.7 z"
           id="path10130" />
        <path
           d="m 367.97979,570.18098 q 0,0.4875 -0.175,0.925 -0.175,0.425 -0.475,0.825 -0.2875,0.4 -0.6625,0.775 -0.375,0.375 -0.7625,0.75 -0.325,0.3125 -0.6375,0.6375 -0.3,0.3125 -0.55,0.6375 -0.2375,0.3125 -0.3875,0.625 -0.1375,0.3 -0.1375,0.6 l 0,0.025 4.0875,0 0,0.7125 -4.9875,0 q 0,-0.025 -0.0125,-0.0875 0,-0.075 0,-0.2125 0,-0.5875 0.2125,-1.0875 0.2125,-0.5125 0.5375,-0.9625 0.3375,-0.45 0.7375,-0.8375 0.4125,-0.3875 0.7875,-0.75 0.3125,-0.3 0.5875,-0.575 0.2875,-0.2875 0.5,-0.5875 0.2125,-0.3 0.3375,-0.6375 0.125,-0.3375 0.125,-0.7375 0,-0.875 -0.475,-1.25 -0.4625,-0.3875 -1.175,-0.3875 -0.4,0 -0.7125,0.1 -0.3125,0.1 -0.55,0.2375 -0.225,0.125 -0.3875,0.2625 -0.1625,0.1375 -0.2375,0.2125 l -0.425,-0.5625 q 0.075,-0.0875 0.2625,-0.25 0.2,-0.175 0.4875,-0.3375 0.3,-0.1625 0.6875,-0.275 0.3875,-0.125 0.8625,-0.125 1.2625,0 1.9,0.625 0.6375,0.6125 0.6375,1.7125 z"
           id="path10132" />
      </g>
      <rect
         style="color:#000000;clip-rule:nonzero;display:inline;overflow:visible;visibility:visible;opacity:1;isolation:auto;mix-blend-mode:normal;color-interpolation:sRGB;color-interpolation-filters:linearRGB;solid-color:#000000;solid-opacity:1;fill:#f32c36;fill-opacity:1;fill-rule:evenodd;stroke:none;stroke-width:2;stroke-linecap:round;stroke-linejoin:miter;stroke-miterlimit:4;stroke-dasharray:none;stroke-dashoffset:0;stroke-opacity:1;marker:none;color-rendering:auto;image-rendering:auto;shape-rendering:auto;text-rendering:auto;enable-background:accumulate"
         id="rect6411"
         width="192"
         height="159.99988"
         x="320"
         y="252.36238" />
      <g
         id="g6413"
         transform="matrix(0.625,0,0,0.625,428.41072,253.29656)">
        <g
           transform="matrix(0,-1,-1,0,373.50506,516.50504)"
           id="g6415"
           style="display:inline">
          <g
             transform="matrix(-0.9996045,0,0,1,575.94296,-611.00001)"
             id="g6417">
            <g
               transform="matrix(-1,0,0,1,575.99999,611)"
               id="g6419"
               style="display:inline">
              <rect
                 style="color:#000000;display:inline;overflow:visible;visibility:visible;fill:none;stroke:none;stroke-width:4;marker:none;enable-background:accumulate"
                 id="rect6421"
                 width="96.037987"
                 height="96"
                 x="-438.00244"
                 y="345.36221"
                 transform="scale(-1,1)" />
              <path
                 style="font-style:normal;font-variant:normal;font-weight:normal;font-stretch:normal;font-size:15px;line-height:125%;font-family:Ubuntu;-inkscape-font-specification:Ubuntu;text-align:center;letter-spacing:0px;word-spacing:0px;writing-mode:lr-tb;text-anchor:middle;fill:#ffffff;fill-opacity:1;stroke:none;stroke-width:0.99980223"
                 d="M 48,4 C 44.00014,4 39.99211,4.7461162 36,6.1503906 l 0,6.7109374 C 29.327124,13.810409 22.655558,15.52986 16,17.957031 L 16,24 l -4,0 0,4 2,0 1.998047,0 L 20,28 31.998047,28 36,28 45.998047,28 50,28 59.998047,28 64,28 75.998047,28 80,28 l 4,0 0,-4 -4,0 0,-6.042969 C 73.332931,15.582208 66.666543,13.849013 60,12.882812 L 60,6.1503906 C 55.99972,4.7760144 51.99985,4 48,4 Z m 0,4 c 2.66654,0 5.33317,0.5173461 8,1.4335938 l 0,2.9628902 C 53.333392,12.134797 50.666623,12 48,12 c -2.665975,0 -5.332361,0.129657 -8,0.384766 L 40,9.4335938 C 42.66138,8.497414 45.33345,8 48,8 Z m -32.001953,18 0,54 c 0,2.633248 0.244566,4.726438 0.910156,6.488281 0.66558,1.761843 1.859171,3.170898 3.369141,4.009766 C 23.297284,92.175793 27,92 32,92 l 16,0 15.998047,0 c 5,0 8.702716,0.175793 11.722656,-1.501953 1.50996,-0.838868 2.701608,-2.247923 3.367188,-4.009766 C 79.753481,84.726438 80,82.633248 80,80 l 0,-46 -4.001953,0 0,46 c 0,2.366744 -0.255434,4.023564 -0.652344,5.074219 -0.39692,1.050654 -0.828329,1.516607 -1.568359,1.927734 C 72.297284,87.824208 68.998047,88 63.998047,88 L 48,88 47.998047,88 32,88 c -5,0 -8.299237,-0.175792 -9.779297,-0.998047 -0.74004,-0.411127 -1.171449,-0.87708 -1.568359,-1.927734 C 20.255424,84.023564 20,82.366744 20,80 l 0,-54 z m 16,8 0,36 L 36,70 36,34 Z m 14,0 0,36 L 50,70 50,34 Z m 14,0 0,36 L 64,70 64,34 Z m 13.560547,41.115234 0.111328,0.144532 c -0.0213,-0.02629 -0.03163,-0.05945 -0.05273,-0.08594 -0.017,-0.02229 -0.04169,-0.0361 -0.05859,-0.05859 z m -51.16211,0.01367 c -0.0169,0.02239 -0.04159,0.03816 -0.05859,0.06055 -0.021,0.02639 -0.03143,0.05965 -0.05273,0.08594 z"
                 transform="matrix(0,-1,-1.0003957,0,438.00245,441.36222)"
                 id="path6423" />
            </g>
          </g>
        </g>
      </g>
      <circle
         id="circle6498"
         r="34"
         cy="368.36237"
         cx="428"
         style="opacity:0.9;fill:#333333" />
      <g
         id="text4878"
         style="font-style:normal;font-variant:normal;font-weight:normal;font-stretch:normal;font-size:18.22799492px;line-height:125%;font-family:Ubuntu;-inkscape-font-specification:Ubuntu;letter-spacing:0px;word-spacing:0px;fill:#ffffff;fill-opacity:1;stroke:none;stroke-width:1px;stroke-linecap:butt;stroke-linejoin:miter;stroke-opacity:1"
         transform="matrix(4,0,0,4,-391.3238,-1953.177)">
        <path
           id="path10105"
           d="m 149.06549,448.67544 q 1.03899,-0.40102 2.02331,-1.02077 0.98431,-0.63798 1.80457,-1.58583 l 1.20305,0 0,12.632 -1.69521,0 0,-10.28059 q -0.21873,0.2005 -0.54684,0.41924 -0.30987,0.21874 -0.69266,0.41924 -0.36456,0.20051 -0.78381,0.38279 -0.40101,0.18228 -0.7838,0.30988 l -0.52861,-1.27596 z" />
      </g>
      <path
         style="color:#000000;font-style:normal;font-variant:normal;font-weight:normal;font-stretch:normal;font-size:medium;line-height:normal;font-family:sans-serif;text-indent:0;text-align:start;text-decoration:none;text-decoration-line:none;text-decoration-style:solid;text-decoration-color:#000000;letter-spacing:normal;word-spacing:normal;text-transform:none;direction:ltr;block-progression:tb;writing-mode:lr-tb;baseline-shift:baseline;text-anchor:start;white-space:normal;clip-rule:nonzero;display:inline;overflow:visible;visibility:visible;opacity:0.9;isolation:auto;mix-blend-mode:normal;color-interpolation:sRGB;color-interpolation-filters:linearRGB;solid-color:#000000;solid-opacity:1;fill:#ffffff;fill-opacity:1;fill-rule:evenodd;stroke:none;stroke-width:8;stroke-linecap:round;stroke-linejoin:miter;stroke-miterlimit:4;stroke-dasharray:none;stroke-dashoffset:0;stroke-opacity:1;marker:none;color-rendering:auto;image-rendering:auto;shape-rendering:auto;text-rendering:auto;enable-background:accumulate"
         d="m 220,-203.63672 c -33.08971,0 -60,26.91029 -60,60 0,33.08971 26.91029,60.000001 60,60.000001 33.08971,0 60,-26.910291 60,-60.000001 0,-33.08971 -26.91029,-60 -60,-60 z m 0,8 c 28.76619,0 52,23.23382 52,52 0,28.76619 -23.23381,52.000001 -52,52.000001 -28.76619,0 -52,-23.233811 -52,-52.000001 0,-28.76618 23.23381,-52 52,-52 z"
         id="path4882" />
      <g
         id="text4884"
         style="font-style:normal;font-variant:normal;font-weight:normal;font-stretch:normal;font-size:18.22799492px;line-height:125%;font-family:Ubuntu;-inkscape-font-specification:Ubuntu;letter-spacing:0px;word-spacing:0px;fill:#ffffff;fill-opacity:1;stroke:none;stroke-width:1px;stroke-linecap:butt;stroke-linejoin:miter;stroke-opacity:1"
         transform="matrix(4,0,0,4,-396.98066,-1912.9974)">
        <path
           id="path10108"
           d="m 157.78139,559.39611 q 0,0.65621 -0.27342,1.27596 -0.25519,0.60153 -0.69266,1.20305 -0.43747,0.5833 -0.98431,1.16659 -0.54684,0.56507 -1.09368,1.11191 -0.30988,0.30988 -0.72912,0.72912 -0.40102,0.41924 -0.76558,0.87494 -0.36456,0.4557 -0.61975,0.87495 -0.23696,0.41924 -0.23696,0.72912 l 5.81473,0 0,1.44001 -7.65576,0 q -0.0182,-0.10937 -0.0182,-0.21874 0,-0.10937 0,-0.20051 0,-0.85671 0.27342,-1.58583 0.29165,-0.74735 0.74735,-1.40356 0.4557,-0.65621 1.02077,-1.2395 0.56507,-0.5833 1.11191,-1.13014 0.4557,-0.43747 0.85671,-0.85671 0.41925,-0.43747 0.72912,-0.85672 0.32811,-0.43747 0.51039,-0.89317 0.2005,-0.4557 0.2005,-0.96608 0,-0.54684 -0.18228,-0.92963 -0.16405,-0.38279 -0.4557,-0.63798 -0.29164,-0.25519 -0.69266,-0.36456 -0.38279,-0.1276 -0.82026,-0.1276 -0.52861,0 -0.96608,0.14583 -0.43748,0.14582 -0.78381,0.34633 -0.34633,0.18228 -0.58329,0.40101 -0.23697,0.20051 -0.36456,0.30988 l -0.83849,-1.20305 q 0.16405,-0.18228 0.49215,-0.43747 0.32811,-0.27342 0.78381,-0.51038 0.4557,-0.23697 1.02077,-0.40102 0.56506,-0.16405 1.22127,-0.16405 1.98685,0 2.97116,0.92963 1.00254,0.9114 1.00254,2.58837 z" />
      </g>
      <path
         style="color:#000000;font-style:normal;font-variant:normal;font-weight:normal;font-stretch:normal;font-size:medium;line-height:normal;font-family:sans-serif;text-indent:0;text-align:start;text-decoration:none;text-decoration-line:none;text-decoration-style:solid;text-decoration-color:#000000;letter-spacing:normal;word-spacing:normal;text-transform:none;direction:ltr;block-progression:tb;writing-mode:lr-tb;baseline-shift:baseline;text-anchor:start;white-space:normal;clip-rule:nonzero;display:inline;overflow:visible;visibility:visible;opacity:0.9;isolation:auto;mix-blend-mode:normal;color-interpolation:sRGB;color-interpolation-filters:linearRGB;solid-color:#000000;solid-opacity:1;fill:#ffffff;fill-opacity:1;fill-rule:evenodd;stroke:none;stroke-width:8;stroke-linecap:round;stroke-linejoin:miter;stroke-miterlimit:4;stroke-dasharray:none;stroke-dashoffset:0;stroke-opacity:1;marker:none;color-rendering:auto;image-rendering:auto;shape-rendering:auto;text-rendering:auto;enable-background:accumulate"
         d="m 220,276.36133 c -33.08971,0 -60,26.91029 -60,60 0,33.0897 26.91029,60 60,60 33.08971,0 60,-26.9103 60,-60 0,-33.08971 -26.91029,-60 -60,-60 z m 0,8 c 28.76619,0 52,23.23381 52,52 0,28.76618 -23.23381,52 -52,52 -28.76619,0 -52,-23.23382 -52,-52 0,-28.76619 23.23381,-52 52,-52 z"
         id="circle4888" />
    </g>
  </g>
</svg>
