<?xml version="1.0" encoding="UTF-8" standalone="no"?>
<svg
   xmlns:dc="http://purl.org/dc/elements/1.1/"
   xmlns:cc="http://creativecommons.org/ns#"
   xmlns:rdf="http://www.w3.org/1999/02/22-rdf-syntax-ns#"
   xmlns:svg="http://www.w3.org/2000/svg"
   xmlns="http://www.w3.org/2000/svg"
   version="1.1"
   id="svg4239"
   viewBox="0 0 1120 1120"
   height="1120"
   width="1120">
  <defs
     id="defs4241" />
  <metadata
     id="metadata4244">
    <rdf:RDF>
      <cc:Work
         rdf:about="">
        <dc:format>image/svg+xml</dc:format>
        <dc:type
           rdf:resource="http://purl.org/dc/dcmitype/StillImage" />
        <dc:title></dc:title>
      </cc:Work>
    </rdf:RDF>
  </metadata>
  <g
     transform="translate(-120,467.63775)"
     id="layer1">
    <g
       transform="matrix(4,0,0,4,-360,-1957.0866)"
       id="g10489">
      <rect
         style="color:#000000;clip-rule:nonzero;display:inline;overflow:visible;visibility:visible;opacity:1;isolation:auto;mix-blend-mode:normal;color-interpolation:sRGB;color-interpolation-filters:linearRGB;solid-color:#000000;solid-opacity:1;fill:#333333;fill-opacity:1;fill-rule:evenodd;stroke:none;stroke-width:2;stroke-linecap:round;stroke-linejoin:miter;stroke-miterlimit:4;stroke-dasharray:none;stroke-dashoffset:0;stroke-opacity:1;marker:none;color-rendering:auto;image-rendering:auto;shape-rendering:auto;text-rendering:auto;enable-background:accumulate"
         id="rect4868"
         width="280"
         height="280"
         x="120"
         y="372.36221" />
      <rect
         style="color:#000000;clip-rule:nonzero;display:inline;overflow:visible;visibility:visible;opacity:1;isolation:auto;mix-blend-mode:normal;color-interpolation:sRGB;color-interpolation-filters:linearRGB;solid-color:#000000;solid-opacity:1;fill:#929292;fill-opacity:1;fill-rule:evenodd;stroke:none;stroke-width:2;stroke-linecap:round;stroke-linejoin:miter;stroke-miterlimit:4;stroke-dasharray:none;stroke-dashoffset:0;stroke-opacity:1;marker:none;color-rendering:auto;image-rendering:auto;shape-rendering:auto;text-rendering:auto;enable-background:accumulate"
         id="rect6408"
         width="92"
         height="139.99998"
         x="140"
         y="424.36227"
         rx="6"
         ry="6" />
      <rect
         style="color:#000000;clip-rule:nonzero;display:inline;overflow:visible;visibility:visible;opacity:1;isolation:auto;mix-blend-mode:normal;color-interpolation:sRGB;color-interpolation-filters:linearRGB;solid-color:#000000;solid-opacity:1;fill:#ffffff;fill-opacity:1;fill-rule:evenodd;stroke:none;stroke-width:2;stroke-linecap:round;stroke-linejoin:miter;stroke-miterlimit:4;stroke-dasharray:none;stroke-dashoffset:0;stroke-opacity:1;marker:none;color-rendering:auto;image-rendering:auto;shape-rendering:auto;text-rendering:auto;enable-background:accumulate"
         id="rect6368"
         width="79.999992"
         height="59.999996"
         x="146"
         y="434.36227" />
      <rect
         y="491.36221"
         x="146"
         height="63.000011"
         width="79.999992"
         id="rect5292"
         style="color:#000000;clip-rule:nonzero;display:inline;overflow:visible;visibility:visible;opacity:1;isolation:auto;mix-blend-mode:normal;color-interpolation:sRGB;color-interpolation-filters:linearRGB;solid-color:#000000;solid-opacity:1;fill:#eeeeee;fill-opacity:1;fill-rule:evenodd;stroke:none;stroke-width:2;stroke-linecap:round;stroke-linejoin:miter;stroke-miterlimit:4;stroke-dasharray:none;stroke-dashoffset:0;stroke-opacity:1;marker:none;color-rendering:auto;image-rendering:auto;shape-rendering:auto;text-rendering:auto;enable-background:accumulate" />
      <path
         style="color:#000000;font-style:normal;font-variant:normal;font-weight:normal;font-stretch:normal;font-size:medium;line-height:normal;font-family:sans-serif;text-indent:0;text-align:start;text-decoration:none;text-decoration-line:none;text-decoration-style:solid;text-decoration-color:#000000;letter-spacing:normal;word-spacing:normal;text-transform:none;direction:ltr;block-progression:tb;writing-mode:lr-tb;baseline-shift:baseline;text-anchor:start;white-space:normal;clip-rule:nonzero;display:inline;overflow:visible;visibility:visible;opacity:1;isolation:auto;mix-blend-mode:normal;color-interpolation:sRGB;color-interpolation-filters:linearRGB;solid-color:#000000;solid-opacity:1;fill:#cfcfcf;fill-opacity:1;fill-rule:evenodd;stroke:none;stroke-width:1px;stroke-linecap:butt;stroke-linejoin:miter;stroke-miterlimit:4;stroke-dasharray:none;stroke-dashoffset:0;stroke-opacity:1;color-rendering:auto;image-rendering:auto;shape-rendering:auto;text-rendering:auto;enable-background:accumulate"
         d="m 65,119 0,15 -19,0 -1,0 -19,0 0,1.00977 19,-0.002 0,14.99219 -19,0 0,1 19,0 0,15 -19,0 0,1 19,0 0,15 1,0 0,-15 19,0 0,15 1,0 0,-15 19,0 0,15 1,0 0,-15 20,0 0,-1 -20,0 0,-15 20,0 0,-1 -20,0 0,-14.99805 20,-0.002 0,-1 -20,0 0,-15 -1,0 0,15 -19,0 0,-15 -1,0 z M 85,135.00195 85,150 l -19,0 0,-14.99609 19,-0.002 z m -20,0.002 0,14.99609 -19,0 0,-14.99414 19,-0.002 z M 46,151 l 19,0 0,15 -19,0 0,-15 z m 20,0 19,0 0,15 -19,0 0,-15 z"
         transform="translate(120,372.36221)"
         id="path6291" />
      <rect
         y="474.36221"
         x="149"
         height="14.000015"
         width="73.999992"
         id="rect6375"
         style="color:#000000;clip-rule:nonzero;display:inline;overflow:visible;visibility:visible;opacity:1;isolation:auto;mix-blend-mode:normal;color-interpolation:sRGB;color-interpolation-filters:linearRGB;solid-color:#000000;solid-opacity:1;fill:#efeeee;fill-opacity:1;fill-rule:evenodd;stroke:none;stroke-width:2;stroke-linecap:round;stroke-linejoin:miter;stroke-miterlimit:4;stroke-dasharray:none;stroke-dashoffset:0;stroke-opacity:1;marker:none;color-rendering:auto;image-rendering:auto;shape-rendering:auto;text-rendering:auto;enable-background:accumulate" />
      <rect
         ry="6"
         rx="6"
         y="-383.49997"
         x="472.36224"
         height="140"
         width="92"
         id="rect6410"
         style="color:#000000;clip-rule:nonzero;display:inline;overflow:visible;visibility:visible;opacity:1;isolation:auto;mix-blend-mode:normal;color-interpolation:sRGB;color-interpolation-filters:linearRGB;solid-color:#000000;solid-opacity:1;fill:#929292;fill-opacity:1;fill-rule:evenodd;stroke:none;stroke-width:2;stroke-linecap:round;stroke-linejoin:miter;stroke-miterlimit:4;stroke-dasharray:none;stroke-dashoffset:0;stroke-opacity:1;marker:none;color-rendering:auto;image-rendering:auto;shape-rendering:auto;text-rendering:auto;enable-background:accumulate"
         transform="matrix(0,1,-1,0,0,0)" />
      <rect
         y="-373.49997"
         x="478.36224"
         height="120.00002"
         width="80"
         id="rect6412"
         style="color:#000000;clip-rule:nonzero;display:inline;overflow:visible;visibility:visible;opacity:1;isolation:auto;mix-blend-mode:normal;color-interpolation:sRGB;color-interpolation-filters:linearRGB;solid-color:#000000;solid-opacity:1;fill:#ffffff;fill-opacity:1;fill-rule:evenodd;stroke:none;stroke-width:2;stroke-linecap:round;stroke-linejoin:miter;stroke-miterlimit:4;stroke-dasharray:none;stroke-dashoffset:0;stroke-opacity:1;marker:none;color-rendering:auto;image-rendering:auto;shape-rendering:auto;text-rendering:auto;enable-background:accumulate"
         transform="matrix(0,1,-1,0,0,0)" />
      <rect
         style="color:#000000;clip-rule:nonzero;display:inline;overflow:visible;visibility:visible;opacity:1;isolation:auto;mix-blend-mode:normal;color-interpolation:sRGB;color-interpolation-filters:linearRGB;solid-color:#000000;solid-opacity:1;fill:#eeeeee;fill-opacity:1;fill-rule:evenodd;stroke:none;stroke-width:2;stroke-linecap:round;stroke-linejoin:miter;stroke-miterlimit:4;stroke-dasharray:none;stroke-dashoffset:0;stroke-opacity:1;marker:none;color-rendering:auto;image-rendering:auto;shape-rendering:auto;text-rendering:auto;enable-background:accumulate"
         id="rect6414"
         width="60.000034"
         height="47.250031"
         x="253.5"
         y="511.61215" />
      <rect
         style="color:#000000;clip-rule:nonzero;display:inline;overflow:visible;visibility:visible;opacity:1;isolation:auto;mix-blend-mode:normal;color-interpolation:sRGB;color-interpolation-filters:linearRGB;solid-color:#000000;solid-opacity:1;fill:#efeeee;fill-opacity:1;fill-rule:evenodd;stroke:none;stroke-width:2;stroke-linecap:round;stroke-linejoin:miter;stroke-miterlimit:4;stroke-dasharray:none;stroke-dashoffset:0;stroke-opacity:1;marker:none;color-rendering:auto;image-rendering:auto;shape-rendering:auto;text-rendering:auto;enable-background:accumulate"
         id="rect6428"
         width="114.00002"
         height="14.000017"
         x="-370.49997"
         y="-508.86221"
         transform="scale(-1,-1)" />
      <rect
         y="511.61215"
         x="313.50003"
         height="47.250031"
         width="60.000034"
         id="rect6452"
         style="color:#000000;clip-rule:nonzero;display:inline;overflow:visible;visibility:visible;opacity:1;isolation:auto;mix-blend-mode:normal;color-interpolation:sRGB;color-interpolation-filters:linearRGB;solid-color:#000000;solid-opacity:1;fill:#e2e2e2;fill-opacity:1;fill-rule:evenodd;stroke:none;stroke-width:2;stroke-linecap:round;stroke-linejoin:miter;stroke-miterlimit:4;stroke-dasharray:none;stroke-dashoffset:0;stroke-opacity:1;marker:none;color-rendering:auto;image-rendering:auto;shape-rendering:auto;text-rendering:auto;enable-background:accumulate" />
      <g
         transform="matrix(0.49616039,0.28645833,-0.28645833,0.49616039,203.65644,557.71796)"
         id="layer1-0">
        <g
           style="display:inline"
           id="g4845"
           transform="matrix(0,-1,-1,0,373.50506,516.50504)">
          <g
             id="g4778"
             transform="matrix(-0.9996045,0,0,1,575.94296,-611.00001)">
            <g
               style="display:inline"
               id="g4780"
               transform="matrix(1,0,0,-1,-203.96692,1397.7244)">
              <rect
                 transform="scale(-1,1)"
                 y="345.36221"
                 x="-438.00244"
                 height="96"
                 width="96.037987"
                 id="rect4782"
                 style="color:#000000;display:inline;overflow:visible;visibility:visible;fill:none;stroke:none;stroke-width:4;marker:none;enable-background:accumulate" />
              <path
                 id="path2194-7"
                 d="m 382.21004,409.36222 c 0,0 -6.6219,13.54715 -10.2337,27.98196 0.003,0.003 0.007,0.003 0.009,0.006 0.004,0.002 0.008,0.003 0.0106,0.003 0.007,0.002 0.009,0.003 0.0108,0.003 0.007,0.002 0.007,0.002 0.009,0.006 15.37999,-1.48905 28.97223,-5.70654 28.97223,-5.70654 z"
                 style="color:#000000;display:inline;overflow:visible;visibility:visible;fill:#dd4814;fill-opacity:1;fill-rule:nonzero;stroke:none;stroke-width:3;marker:none;enable-background:accumulate" />
              <path
                 id="path4119"
                 d="m 411.33789,392.0332 c -0.89101,12.644 -7.97594,24.40371 -19.4668,31.00391 l -1.99218,-3.46875 c 13.77171,-7.9103 20.4688,-24.00298 16.35547,-39.27539 -4.11334,-15.27241 -18.00843,-25.88477 -33.91407,-25.88477 l 0,-4.00195 c 17.68789,0 33.19604,11.83577 37.77735,28.8457 1.14532,4.25249 1.53724,8.56659 1.24023,12.78125 z"
                 style="color:#000000;font-style:normal;font-variant:normal;font-weight:normal;font-stretch:normal;font-size:medium;line-height:normal;font-family:sans-serif;text-indent:0;text-align:start;text-decoration:none;text-decoration-line:none;text-decoration-style:solid;text-decoration-color:#000000;letter-spacing:normal;word-spacing:normal;text-transform:none;direction:ltr;block-progression:tb;writing-mode:lr-tb;baseline-shift:baseline;text-anchor:start;white-space:normal;clip-rule:nonzero;display:inline;overflow:visible;visibility:visible;opacity:1;isolation:auto;mix-blend-mode:normal;color-interpolation:sRGB;color-interpolation-filters:linearRGB;solid-color:#000000;solid-opacity:1;fill:#dd4814;fill-opacity:1;fill-rule:nonzero;stroke:none;stroke-width:4.00079107;stroke-linecap:butt;stroke-linejoin:round;stroke-miterlimit:4;stroke-dasharray:none;stroke-dashoffset:0;stroke-opacity:1;marker:none;color-rendering:auto;image-rendering:auto;shape-rendering:auto;text-rendering:auto;enable-background:accumulate" />
            </g>
          </g>
        </g>
      </g>
      <g
         id="g6620"
         transform="matrix(-0.49616039,-0.28645833,0.28645833,-0.49616039,316.34356,467.00647)">
        <g
           transform="matrix(0,-1,-1,0,373.50506,516.50504)"
           id="g6622"
           style="display:inline">
          <g
             transform="matrix(-0.9996045,0,0,1,575.94296,-611.00001)"
             id="g6624">
            <g
               transform="matrix(1,0,0,-1,-203.96692,1397.7244)"
               id="g6626"
               style="display:inline">
              <rect
                 style="color:#000000;display:inline;overflow:visible;visibility:visible;fill:none;stroke:none;stroke-width:4;marker:none;enable-background:accumulate"
                 id="rect6628"
                 width="96.037987"
                 height="96"
                 x="-438.00244"
                 y="345.36221"
                 transform="scale(-1,1)" />
              <path
                 style="color:#000000;display:inline;overflow:visible;visibility:visible;fill:#dd4814;fill-opacity:1;fill-rule:nonzero;stroke:none;stroke-width:3;marker:none;enable-background:accumulate"
                 d="m 382.21004,409.36222 c 0,0 -6.6219,13.54715 -10.2337,27.98196 0.003,0.003 0.007,0.003 0.009,0.006 0.004,0.002 0.008,0.003 0.0106,0.003 0.007,0.002 0.009,0.003 0.0108,0.003 0.007,0.002 0.007,0.002 0.009,0.006 15.37999,-1.48905 28.97223,-5.70654 28.97223,-5.70654 z"
                 id="path6630" />
              <path
                 style="color:#000000;font-style:normal;font-variant:normal;font-weight:normal;font-stretch:normal;font-size:medium;line-height:normal;font-family:sans-serif;text-indent:0;text-align:start;text-decoration:none;text-decoration-line:none;text-decoration-style:solid;text-decoration-color:#000000;letter-spacing:normal;word-spacing:normal;text-transform:none;direction:ltr;block-progression:tb;writing-mode:lr-tb;baseline-shift:baseline;text-anchor:start;white-space:normal;clip-rule:nonzero;display:inline;overflow:visible;visibility:visible;opacity:1;isolation:auto;mix-blend-mode:normal;color-interpolation:sRGB;color-interpolation-filters:linearRGB;solid-color:#000000;solid-opacity:1;fill:#dd4814;fill-opacity:1;fill-rule:nonzero;stroke:none;stroke-width:4.00079107;stroke-linecap:butt;stroke-linejoin:round;stroke-miterlimit:4;stroke-dasharray:none;stroke-dashoffset:0;stroke-opacity:1;marker:none;color-rendering:auto;image-rendering:auto;shape-rendering:auto;text-rendering:auto;enable-background:accumulate"
                 d="m 411.33789,392.0332 c -0.89101,12.644 -7.97594,24.40371 -19.4668,31.00391 l -1.99218,-3.46875 c 13.77171,-7.9103 20.4688,-24.00298 16.35547,-39.27539 -4.11334,-15.27241 -18.00843,-25.88477 -33.91407,-25.88477 l 0,-4.00195 c 17.68789,0 33.19604,11.83577 37.77735,28.8457 1.14532,4.25249 1.53724,8.56659 1.24023,12.78125 z"
                 id="path6632" />
            </g>
          </g>
        </g>
      </g>
      <path
         style="color:#000000;font-style:normal;font-variant:normal;font-weight:normal;font-stretch:normal;font-size:medium;line-height:normal;font-family:sans-serif;text-indent:0;text-align:start;text-decoration:none;text-decoration-line:none;text-decoration-style:solid;text-decoration-color:#000000;letter-spacing:normal;word-spacing:normal;text-transform:none;direction:ltr;block-progression:tb;writing-mode:lr-tb;baseline-shift:baseline;text-anchor:start;white-space:normal;clip-rule:nonzero;display:inline;overflow:visible;visibility:visible;opacity:1;isolation:auto;mix-blend-mode:normal;color-interpolation:sRGB;color-interpolation-filters:linearRGB;solid-color:#000000;solid-opacity:1;fill:#cfcfcf;fill-opacity:1;fill-rule:evenodd;stroke:none;stroke-width:1px;stroke-linecap:butt;stroke-linejoin:miter;stroke-miterlimit:4;stroke-dasharray:none;stroke-dashoffset:0;stroke-opacity:1;color-rendering:auto;image-rendering:auto;shape-rendering:auto;text-rendering:auto;enable-background:accumulate"
         d="m 192.75,138.875 0,11.625 -14.25,0 0,-11.25 -0.75,0 0,11.25 -14.25,0 0,-11.25 -0.75,0 0,11.25 -14.25,0 -0.75,0 -14.25,0 0,0.75781 14.25,-0.002 0,11.24414 -14.25,0 0,0.75 14.25,0 0,11.25 -14.25,0 0,0.75 14.25,0 0,11.25 0.75,0 0,-11.25 14.25,0 0,11.25 0.75,0 0,-11.25 14.25,0 0,11.25 0.75,0 0,-11.25 14.25,0 0,11.25 0.75,0 0,-11.25 14.25,0 0,11.25 0.75,0 0,-11.25 14.25,0 0,11.25 0.75,0 0,-11.25 14.25,0 0,11.25 0.75,0 0,-11.25 15,0 0,-0.75 -15,0 0,-11.25 15,0 0,-0.75 -15,0 0,-11.24805 15,-0.002 0,-0.75 -15,0 0,-11.25 -0.75,0 0,11.25 -14.25,0 0,-11.25 -0.75,0 0,11.25 -14.25,0 0,-10.875 -0.75,0 0,10.875 -14.25,0 0,-11.625 -0.75,0 z m 0,12.375 0,11.25 -14.25,0 0,-11.24805 14.25,-0.002 z m -15,0.002 0,11.24805 -14.25,0 0,-11.24609 14.25,-0.002 z m 60,0 0,11.24805 -14.25,0 0,-11.24609 14.25,-0.002 z m -75,0.002 0,11.24609 -14.25,0 0,-11.24414 14.25,-0.002 z m 60,0 0,11.24609 -14.25,0 0,-11.24414 14.25,-0.002 z m -15,0.002 0,11.24414 -14.25,0 0,-11.24219 14.25,-0.002 z m -59.25,11.994 14.25,0 0,11.25 -14.25,0 0,-11.25 z m 15,0 14.25,0 0,11.25 -14.25,0 0,-11.25 z m 15,0 14.25,0 0,11.25 -14.25,0 0,-11.25 z m 15,0 14.25,0 0,11.25 -14.25,0 0,-11.25 z m 15,0 14.25,0 0,11.25 -14.25,0 0,-11.25 z m 15,0 14.25,0 0,11.25 -14.25,0 0,-11.25 z"
         transform="translate(120,372.36221)"
         id="path6416" />
    </g>
  </g>
</svg>
