<?xml version="1.0" encoding="UTF-8" standalone="no"?>
<svg
   xmlns:dc="http://purl.org/dc/elements/1.1/"
   xmlns:cc="http://creativecommons.org/ns#"
   xmlns:rdf="http://www.w3.org/1999/02/22-rdf-syntax-ns#"
   xmlns:svg="http://www.w3.org/2000/svg"
   xmlns="http://www.w3.org/2000/svg"
   version="1.1"
   id="svg4239"
   viewBox="0 0 1120 1120"
   height="1120"
   width="1120">
  <defs
     id="defs4241" />
  <metadata
     id="metadata4244">
    <rdf:RDF>
      <cc:Work
         rdf:about="">
        <dc:format>image/svg+xml</dc:format>
        <dc:type
           rdf:resource="http://purl.org/dc/dcmitype/StillImage" />
        <dc:title></dc:title>
      </cc:Work>
    </rdf:RDF>
  </metadata>
  <g
     transform="translate(-120,467.63775)"
     id="layer1">
    <g
       id="g7606">
      <rect
         style="color:#000000;clip-rule:nonzero;display:inline;overflow:visible;visibility:visible;opacity:1;isolation:auto;mix-blend-mode:normal;color-interpolation:sRGB;color-interpolation-filters:linearRGB;solid-color:#000000;solid-opacity:1;fill:#333333;fill-opacity:1;fill-rule:evenodd;stroke:none;stroke-width:2;stroke-linecap:round;stroke-linejoin:miter;stroke-miterlimit:4;stroke-dasharray:none;stroke-dashoffset:0;stroke-opacity:1;marker:none;color-rendering:auto;image-rendering:auto;shape-rendering:auto;text-rendering:auto;enable-background:accumulate"
         id="rect4868"
         width="1120"
         height="1120"
         x="120"
         y="-467.63776" />
      <rect
         style="color:#000000;clip-rule:nonzero;display:inline;overflow:visible;visibility:visible;opacity:1;isolation:auto;mix-blend-mode:normal;color-interpolation:sRGB;color-interpolation-filters:linearRGB;solid-color:#000000;solid-opacity:1;fill:#ffffff;fill-opacity:1;fill-rule:evenodd;stroke:none;stroke-width:2;stroke-linecap:round;stroke-linejoin:miter;stroke-miterlimit:4;stroke-dasharray:none;stroke-dashoffset:0;stroke-opacity:1;marker:none;color-rendering:auto;image-rendering:auto;shape-rendering:auto;text-rendering:auto;enable-background:accumulate"
         id="rect6368"
         width="800"
         height="480.00012"
         x="320"
         y="-419.63763" />
      <g
         style="font-style:normal;font-variant:normal;font-weight:300;font-stretch:normal;font-size:12.5px;line-height:125%;font-family:Ubuntu;-inkscape-font-specification:'Ubuntu, Light';text-align:start;letter-spacing:0px;word-spacing:0px;writing-mode:lr-tb;text-anchor:start;fill:#5d5d5d;fill-opacity:1;stroke:none;stroke-width:1px;stroke-linecap:butt;stroke-linejoin:miter;stroke-opacity:1"
         id="text6370"
         transform="matrix(4,0,0,4,-360,-1957.0866)">
        <path
           d="m 295.73779,407.48627 q 0.225,-0.6 0.625,-1.35 0.4125,-0.75 0.925,-1.5375 0.5125,-0.7875 1.1125,-1.5375 0.6,-0.7625 1.2125,-1.3875 l 0.85,0 0,5.65 1.075,0 0,0.6625 -1.075,0 0,2.35 -0.8,0 0,-2.35 -3.925,0 0,-0.5 z m 3.925,-0.1625 0,-4.7375 q -0.4375,0.45 -0.8875,1.0375 -0.45,0.5875 -0.8625,1.225 -0.4,0.625 -0.75,1.2625 -0.35,0.6375 -0.5875,1.2125 l 3.0875,0 z"
           id="path10604" />
        <path
           d="m 302.90596,406.01127 q 0,-2.2 0.725,-3.3625 0.725,-1.1625 2.0625,-1.1625 1.325,0 2.05,1.1625 0.7375,1.1625 0.7375,3.3625 0,2.1875 -0.7375,3.35 -0.725,1.1625 -2.05,1.1625 -1.325,0 -2.0625,-1.1625 -0.725,-1.1625 -0.725,-3.35 z m 4.6875,0 q 0,-0.75 -0.1,-1.425 -0.0875,-0.6875 -0.3125,-1.2125 -0.225,-0.525 -0.5875,-0.8375 -0.3625,-0.3125 -0.9,-0.3125 -0.55,0 -0.9125,0.3125 -0.3625,0.3125 -0.5875,0.8375 -0.2125,0.525 -0.3125,1.2125 -0.0875,0.675 -0.0875,1.425 0,0.75 0.0875,1.4375 0.1,0.675 0.3125,1.2 0.225,0.5125 0.5875,0.825 0.3625,0.3125 0.9125,0.3125 0.5375,0 0.9,-0.3125 0.3625,-0.3125 0.5875,-0.825 0.225,-0.525 0.3125,-1.2 0.1,-0.6875 0.1,-1.4375 z"
           id="path10606" />
        <path
           d="m 310.92412,406.37377 2.4625,0 0,-2.7125 0.725,0 0,2.7125 2.4625,0 0,0.7 -2.4625,0 0,2.725 -0.725,0 0,-2.725 -2.4625,0 0,-0.7 z"
           id="path10608" />
        <path
           d="m 323.97979,403.82377 q 0,0.4875 -0.175,0.925 -0.175,0.425 -0.475,0.825 -0.2875,0.4 -0.6625,0.775 -0.375,0.375 -0.7625,0.75 -0.325,0.3125 -0.6375,0.6375 -0.3,0.3125 -0.55,0.6375 -0.2375,0.3125 -0.3875,0.625 -0.1375,0.3 -0.1375,0.6 l 0,0.025 4.0875,0 0,0.7125 -4.9875,0 q 0,-0.025 -0.0125,-0.0875 0,-0.075 0,-0.2125 0,-0.5875 0.2125,-1.0875 0.2125,-0.5125 0.5375,-0.9625 0.3375,-0.45 0.7375,-0.8375 0.4125,-0.3875 0.7875,-0.75 0.3125,-0.3 0.5875,-0.575 0.2875,-0.2875 0.5,-0.5875 0.2125,-0.3 0.3375,-0.6375 0.125,-0.3375 0.125,-0.7375 0,-0.875 -0.475,-1.25 -0.4625,-0.3875 -1.175,-0.3875 -0.4,0 -0.7125,0.1 -0.3125,0.1 -0.55,0.2375 -0.225,0.125 -0.3875,0.2625 -0.1625,0.1375 -0.2375,0.2125 l -0.425,-0.5625 q 0.075,-0.0875 0.2625,-0.25 0.2,-0.175 0.4875,-0.3375 0.3,-0.1625 0.6875,-0.275 0.3875,-0.125 0.8625,-0.125 1.2625,0 1.9,0.625 0.6375,0.6125 0.6375,1.7125 z"
           id="path10610" />
        <path
           d="m 331.74834,407.68627 5.65,0 0,0.7 -5.65,0 0,-0.7 z m 0,-2.625 5.65,0 0,0.7 -5.65,0 0,-0.7 z"
           id="path10612" />
        <path
           d="m 344.69189,406.34627 q 0.315,-0.84 0.875,-1.89 0.5775,-1.05 1.295,-2.1525 0.7175,-1.1025 1.5575,-2.1525 0.84,-1.0675 1.6975,-1.9425 l 1.19,0 0,7.91 1.505,0 0,0.9275 -1.505,0 0,3.29 -1.12,0 0,-3.29 -5.495,0 0,-0.7 z m 5.495,-0.2275 0,-6.6325 q -0.6125,0.63 -1.2425,1.4525 -0.63,0.8225 -1.2075,1.715 -0.56,0.875 -1.05,1.7675 -0.49,0.8925 -0.8225,1.6975 l 4.3225,0 z"
           style="font-size:17.5px;fill:#5d5d5d;fill-opacity:1"
           id="path10614" />
        <path
           d="m 361.67482,401.21877 q 0,0.6825 -0.245,1.295 -0.245,0.595 -0.665,1.155 -0.4025,0.56 -0.9275,1.085 -0.525,0.525 -1.0675,1.05 -0.455,0.4375 -0.8925,0.8925 -0.42,0.4375 -0.77,0.8925 -0.3325,0.4375 -0.5425,0.875 -0.1925,0.42 -0.1925,0.84 l 0,0.035 5.7225,0 0,0.9975 -6.9825,0 q 0,-0.035 -0.0175,-0.1225 0,-0.105 0,-0.2975 0,-0.8225 0.2975,-1.5225 0.2975,-0.7175 0.7525,-1.3475 0.4725,-0.63 1.0325,-1.1725 0.5775,-0.5425 1.1025,-1.05 0.4375,-0.42 0.8225,-0.805 0.4025,-0.4025 0.7,-0.8225 0.2975,-0.42 0.4725,-0.8925 0.175,-0.4725 0.175,-1.0325 0,-1.225 -0.665,-1.75 -0.6475,-0.5425 -1.645,-0.5425 -0.56,0 -0.9975,0.14 -0.4375,0.14 -0.77,0.3325 -0.315,0.175 -0.5425,0.3675 -0.2275,0.1925 -0.3325,0.2975 l -0.595,-0.7875 q 0.105,-0.1225 0.3675,-0.35 0.28,-0.245 0.6825,-0.4725 0.42,-0.2275 0.9625,-0.385 0.5425,-0.175 1.2075,-0.175 1.7675,0 2.66,0.875 0.8925,0.8575 0.8925,2.3975 z"
           style="font-size:17.5px;fill:#5d5d5d;fill-opacity:1"
           id="path10616" />
      </g>
      <g
         id="text4878"
         style="font-style:normal;font-variant:normal;font-weight:normal;font-stretch:normal;font-size:18.22799492px;line-height:125%;font-family:Ubuntu;-inkscape-font-specification:Ubuntu;letter-spacing:0px;word-spacing:0px;fill:#ffffff;fill-opacity:1;stroke:none;stroke-width:1px;stroke-linecap:butt;stroke-linejoin:miter;stroke-opacity:1"
         transform="matrix(4,0,0,4,-391.3238,-1989.177)">
        <path
           id="path10619"
           d="m 149.06549,448.67544 q 1.03899,-0.40102 2.02331,-1.02077 0.98431,-0.63798 1.80457,-1.58583 l 1.20305,0 0,12.632 -1.69521,0 0,-10.28059 q -0.21873,0.2005 -0.54684,0.41924 -0.30987,0.21874 -0.69266,0.41924 -0.36456,0.20051 -0.78381,0.38279 -0.40101,0.18228 -0.7838,0.30988 l -0.52861,-1.27596 z" />
      </g>
      <path
         style="color:#000000;font-style:normal;font-variant:normal;font-weight:normal;font-stretch:normal;font-size:medium;line-height:normal;font-family:sans-serif;text-indent:0;text-align:start;text-decoration:none;text-decoration-line:none;text-decoration-style:solid;text-decoration-color:#000000;letter-spacing:normal;word-spacing:normal;text-transform:none;direction:ltr;block-progression:tb;writing-mode:lr-tb;baseline-shift:baseline;text-anchor:start;white-space:normal;clip-rule:nonzero;display:inline;overflow:visible;visibility:visible;opacity:0.9;isolation:auto;mix-blend-mode:normal;color-interpolation:sRGB;color-interpolation-filters:linearRGB;solid-color:#000000;solid-opacity:1;fill:#ffffff;fill-opacity:1;fill-rule:evenodd;stroke:none;stroke-width:8;stroke-linecap:round;stroke-linejoin:miter;stroke-miterlimit:4;stroke-dasharray:none;stroke-dashoffset:0;stroke-opacity:1;marker:none;color-rendering:auto;image-rendering:auto;shape-rendering:auto;text-rendering:auto;enable-background:accumulate"
         d="m 220,-239.63672 c -33.08971,0 -60,26.91029 -60,60 0,33.08971 26.91029,60 60,60 33.08971,0 60,-26.91029 60,-60 0,-33.08971 -26.91029,-60 -60,-60 z m 0,8 c 28.76619,0 52,23.23382 52,52 0,28.76619 -23.23381,52 -52,52 -28.76619,0 -52,-23.23381 -52,-52 0,-28.76618 23.23381,-52 52,-52 z"
         id="path4882" />
      <g
         style="font-style:normal;font-variant:normal;font-weight:300;font-stretch:normal;font-size:12.5px;line-height:125%;font-family:Ubuntu;-inkscape-font-specification:'Ubuntu, Light';text-align:start;letter-spacing:0px;word-spacing:0px;writing-mode:lr-tb;text-anchor:start;fill:#5d5d5d;fill-opacity:1;stroke:none;stroke-width:1px;stroke-linecap:butt;stroke-linejoin:miter;stroke-opacity:1"
         id="text5177"
         transform="matrix(4,0,0,4,-360,-1957.0866)">
        <path
           d="m 298.96283,447.48627 q 0.225,-0.6 0.625,-1.35 0.4125,-0.75 0.925,-1.5375 0.5125,-0.7875 1.1125,-1.5375 0.6,-0.7625 1.2125,-1.3875 l 0.85,0 0,5.65 1.075,0 0,0.6625 -1.075,0 0,2.35 -0.8,0 0,-2.35 -3.925,0 0,-0.5 z m 3.925,-0.1625 0,-4.7375 q -0.4375,0.45 -0.8875,1.0375 -0.45,0.5875 -0.8625,1.225 -0.4,0.625 -0.75,1.2625 -0.35,0.6375 -0.5875,1.2125 l 3.0875,0 z"
           id="path10589" />
        <path
           d="m 306.13099,446.01127 q 0,-2.2 0.725,-3.3625 0.725,-1.1625 2.0625,-1.1625 1.325,0 2.05,1.1625 0.7375,1.1625 0.7375,3.3625 0,2.1875 -0.7375,3.35 -0.725,1.1625 -2.05,1.1625 -1.325,0 -2.0625,-1.1625 -0.725,-1.1625 -0.725,-3.35 z m 4.6875,0 q 0,-0.75 -0.1,-1.425 -0.0875,-0.6875 -0.3125,-1.2125 -0.225,-0.525 -0.5875,-0.8375 -0.3625,-0.3125 -0.9,-0.3125 -0.55,0 -0.9125,0.3125 -0.3625,0.3125 -0.5875,0.8375 -0.2125,0.525 -0.3125,1.2125 -0.0875,0.675 -0.0875,1.425 0,0.75 0.0875,1.4375 0.1,0.675 0.3125,1.2 0.225,0.5125 0.5875,0.825 0.3625,0.3125 0.9125,0.3125 0.5375,0 0.9,-0.3125 0.3625,-0.3125 0.5875,-0.825 0.225,-0.525 0.3125,-1.2 0.1,-0.6875 0.1,-1.4375 z"
           id="path10591" />
        <path
           d="m 313.79916,446.32377 2.825,0 0,0.7875 -2.825,0 0,-0.7875 z"
           id="path10593" />
        <path
           d="m 323.66478,443.82377 q 0,0.4875 -0.175,0.925 -0.175,0.425 -0.475,0.825 -0.2875,0.4 -0.6625,0.775 -0.375,0.375 -0.7625,0.75 -0.325,0.3125 -0.6375,0.6375 -0.3,0.3125 -0.55,0.6375 -0.2375,0.3125 -0.3875,0.625 -0.1375,0.3 -0.1375,0.6 l 0,0.025 4.0875,0 0,0.7125 -4.9875,0 q 0,-0.025 -0.0125,-0.0875 0,-0.075 0,-0.2125 0,-0.5875 0.2125,-1.0875 0.2125,-0.5125 0.5375,-0.9625 0.3375,-0.45 0.7375,-0.8375 0.4125,-0.3875 0.7875,-0.75 0.3125,-0.3 0.5875,-0.575 0.2875,-0.2875 0.5,-0.5875 0.2125,-0.3 0.3375,-0.6375 0.125,-0.3375 0.125,-0.7375 0,-0.875 -0.475,-1.25 -0.4625,-0.3875 -1.175,-0.3875 -0.4,0 -0.7125,0.1 -0.3125,0.1 -0.55,0.2375 -0.225,0.125 -0.3875,0.2625 -0.1625,0.1375 -0.2375,0.2125 l -0.425,-0.5625 q 0.075,-0.0875 0.2625,-0.25 0.2,-0.175 0.4875,-0.3375 0.3,-0.1625 0.6875,-0.275 0.3875,-0.125 0.8625,-0.125 1.2625,0 1.9,0.625 0.6375,0.6125 0.6375,1.7125 z"
           id="path10595" />
        <path
           d="m 331.43334,447.68627 5.65,0 0,0.7 -5.65,0 0,-0.7 z m 0,-2.625 5.65,0 0,0.7 -5.65,0 0,-0.7 z"
           id="path10597" />
        <path
           d="m 347.61439,449.54877 q 1.6625,0 2.38,-0.6825 0.7175,-0.7 0.7175,-1.8725 0,-0.77 -0.2975,-1.2775 -0.28,-0.5075 -0.7875,-0.805 -0.49,-0.315 -1.155,-0.4375 -0.6475,-0.14 -1.3825,-0.14 l -0.175,0 0,-0.945 0.4025,0 q 0.4725,0 0.9625,-0.0875 0.5075,-0.105 0.91,-0.3675 0.42,-0.2625 0.6825,-0.7 0.28,-0.4375 0.28,-1.12 0,-0.5775 -0.1925,-0.98 -0.1925,-0.42 -0.525,-0.665 -0.315,-0.245 -0.7525,-0.35 -0.42,-0.1225 -0.8925,-0.1225 -0.945,0 -1.47,0.2625 -0.525,0.2625 -0.8575,0.49 l -0.49,-0.8925 q 0.175,-0.1225 0.4375,-0.28 0.28,-0.1575 0.6475,-0.2975 0.3675,-0.14 0.805,-0.2275 0.455,-0.105 0.98,-0.105 0.91,0 1.5575,0.2275 0.665,0.2275 1.1025,0.6475 0.4375,0.4025 0.6475,0.98 0.21,0.56 0.21,1.225 0,1.0675 -0.5775,1.75 -0.56,0.665 -1.4525,0.9625 0.49,0.1225 0.945,0.385 0.4725,0.245 0.84,0.6475 0.3675,0.385 0.595,0.945 0.2275,0.56 0.2275,1.3125 0,0.77 -0.28,1.4175 -0.2625,0.6475 -0.805,1.1375 -0.525,0.4725 -1.3475,0.7525 -0.8225,0.2625 -1.925,0.2625 -0.5775,0 -1.0675,-0.0875 -0.4725,-0.07 -0.84,-0.175 -0.3675,-0.105 -0.63,-0.21 -0.245,-0.105 -0.3675,-0.175 l 0.2975,-1.015 q 0.105,0.07 0.35,0.175 0.245,0.105 0.5775,0.21 0.35,0.0875 0.77,0.1575 0.4375,0.07 0.945,0.07 z"
           style="font-size:17.5px"
           id="path10599" />
        <path
           d="m 358.31482,450.59877 q -0.8575,0 -1.5575,-0.245 -0.6825,-0.245 -1.19,-0.6825 -0.49,-0.455 -0.77,-1.05 -0.2625,-0.6125 -0.2625,-1.33 0,-0.6125 0.175,-1.1025 0.175,-0.5075 0.455,-0.8925 0.2975,-0.4025 0.665,-0.7 0.385,-0.315 0.805,-0.5425 -1.0675,-0.525 -1.4525,-1.2425 -0.385,-0.7175 -0.385,-1.5575 0,-0.7525 0.2625,-1.365 0.2625,-0.6125 0.7175,-1.0325 0.4725,-0.4375 1.12,-0.665 0.6475,-0.245 1.4175,-0.245 0.91,0 1.575,0.28 0.665,0.2625 1.085,0.7 0.4375,0.4375 0.63,0.9975 0.21,0.56 0.21,1.155 0,0.5775 -0.175,1.0675 -0.175,0.4725 -0.455,0.875 -0.28,0.385 -0.63,0.6825 -0.35,0.2975 -0.6825,0.5075 1.225,0.525 1.715,1.3125 0.5075,0.7875 0.5075,1.6625 0,0.7525 -0.28,1.3825 -0.2625,0.63 -0.7525,1.085 -0.49,0.4375 -1.19,0.6825 -0.7,0.2625 -1.5575,0.2625 z m 2.5725,-3.3075 q 0,-0.7525 -0.2975,-1.225 -0.28,-0.4725 -0.7525,-0.77 -0.455,-0.2975 -1.05,-0.4725 -0.5775,-0.175 -1.1725,-0.3675 -0.8925,0.42 -1.3825,1.1375 -0.49,0.7 -0.49,1.6975 0,0.49 0.1575,0.91 0.1575,0.42 0.4725,0.735 0.3325,0.315 0.805,0.5075 0.49,0.175 1.1375,0.175 0.6475,0 1.12,-0.175 0.49,-0.1925 0.805,-0.5075 0.3325,-0.315 0.49,-0.735 0.1575,-0.42 0.1575,-0.91 z m -4.9,-6.16 q 0,0.49 0.105,0.8925 0.1225,0.4025 0.4375,0.735 0.315,0.315 0.875,0.595 0.56,0.2625 1.47,0.5075 0.805,-0.455 1.2775,-1.12 0.4725,-0.665 0.4725,-1.6625 0,-0.4025 -0.14,-0.7875 -0.1225,-0.385 -0.4025,-0.6825 -0.2625,-0.315 -0.7,-0.49 -0.4375,-0.1925 -1.0675,-0.1925 -0.5775,0 -1.015,0.175 -0.4375,0.175 -0.735,0.49 -0.28,0.2975 -0.4375,0.7 -0.14,0.4025 -0.14,0.84 z"
           style="font-size:17.5px"
           id="path10601" />
      </g>
      <g
         style="font-style:normal;font-variant:normal;font-weight:300;font-stretch:normal;font-size:12.5px;line-height:125%;font-family:Ubuntu;-inkscape-font-specification:'Ubuntu, Light';text-align:start;letter-spacing:0px;word-spacing:0px;writing-mode:lr-tb;text-anchor:start;fill:#5d5d5d;fill-opacity:1;stroke:none;stroke-width:1px;stroke-linecap:butt;stroke-linejoin:miter;stroke-opacity:1"
         id="text5185"
         transform="matrix(4,0,0,4,-360,-1957.0866)">
        <path
           d="m 317.15139,483.82377 q 0,0.4875 -0.175,0.925 -0.175,0.425 -0.475,0.825 -0.2875,0.4 -0.6625,0.775 -0.375,0.375 -0.7625,0.75 -0.325,0.3125 -0.6375,0.6375 -0.3,0.3125 -0.55,0.6375 -0.2375,0.3125 -0.3875,0.625 -0.1375,0.3 -0.1375,0.6 l 0,0.025 4.0875,0 0,0.7125 -4.9875,0 q 0,-0.025 -0.0125,-0.0875 0,-0.075 0,-0.2125 0,-0.5875 0.2125,-1.0875 0.2125,-0.5125 0.5375,-0.9625 0.3375,-0.45 0.7375,-0.8375 0.4125,-0.3875 0.7875,-0.75 0.3125,-0.3 0.5875,-0.575 0.2875,-0.2875 0.5,-0.5875 0.2125,-0.3 0.3375,-0.6375 0.125,-0.3375 0.125,-0.7375 0,-0.875 -0.475,-1.25 -0.4625,-0.3875 -1.175,-0.3875 -0.4,0 -0.7125,0.1 -0.3125,0.1 -0.55,0.2375 -0.225,0.125 -0.3875,0.2625 -0.1625,0.1375 -0.2375,0.2125 l -0.425,-0.5625 q 0.075,-0.0875 0.2625,-0.25 0.2,-0.175 0.4875,-0.3375 0.3,-0.1625 0.6875,-0.275 0.3875,-0.125 0.8625,-0.125 1.2625,0 1.9,0.625 0.6375,0.6125 0.6375,1.7125 z"
           id="path10578" />
        <path
           d="m 320.20705,486.37377 2.4625,0 0,-2.7125 0.725,0 0,2.7125 2.4625,0 0,0.7 -2.4625,0 0,2.725 -0.725,0 0,-2.725 -2.4625,0 0,-0.7 z"
           id="path10580" />
        <path
           d="m 333.26271,483.82377 q 0,0.4875 -0.175,0.925 -0.175,0.425 -0.475,0.825 -0.2875,0.4 -0.6625,0.775 -0.375,0.375 -0.7625,0.75 -0.325,0.3125 -0.6375,0.6375 -0.3,0.3125 -0.55,0.6375 -0.2375,0.3125 -0.3875,0.625 -0.1375,0.3 -0.1375,0.6 l 0,0.025 4.0875,0 0,0.7125 -4.9875,0 q 0,-0.025 -0.0125,-0.0875 0,-0.075 0,-0.2125 0,-0.5875 0.2125,-1.0875 0.2125,-0.5125 0.5375,-0.9625 0.3375,-0.45 0.7375,-0.8375 0.4125,-0.3875 0.7875,-0.75 0.3125,-0.3 0.5875,-0.575 0.2875,-0.2875 0.5,-0.5875 0.2125,-0.3 0.3375,-0.6375 0.125,-0.3375 0.125,-0.7375 0,-0.875 -0.475,-1.25 -0.4625,-0.3875 -1.175,-0.3875 -0.4,0 -0.7125,0.1 -0.3125,0.1 -0.55,0.2375 -0.225,0.125 -0.3875,0.2625 -0.1625,0.1375 -0.2375,0.2125 l -0.425,-0.5625 q 0.075,-0.0875 0.2625,-0.25 0.2,-0.175 0.4875,-0.3375 0.3,-0.1625 0.6875,-0.275 0.3875,-0.125 0.8625,-0.125 1.2625,0 1.9,0.625 0.6375,0.6125 0.6375,1.7125 z"
           id="path10582" />
        <path
           d="m 341.03127,487.68627 5.65,0 0,0.7 -5.65,0 0,-0.7 z m 0,-2.625 5.65,0 0,0.7 -5.65,0 0,-0.7 z"
           id="path10584" />
        <path
           d="m 353.97482,486.34627 q 0.315,-0.84 0.875,-1.89 0.5775,-1.05 1.295,-2.1525 0.7175,-1.1025 1.5575,-2.1525 0.84,-1.0675 1.6975,-1.9425 l 1.19,0 0,7.91 1.505,0 0,0.9275 -1.505,0 0,3.29 -1.12,0 0,-3.29 -5.495,0 0,-0.7 z m 5.495,-0.2275 0,-6.6325 q -0.6125,0.63 -1.2425,1.4525 -0.63,0.8225 -1.2075,1.715 -0.56,0.875 -1.05,1.7675 -0.49,0.8925 -0.8225,1.6975 l 4.3225,0 z"
           style="font-size:17.5px;fill:#5d5d5d;fill-opacity:1"
           id="path10586" />
      </g>
      <g
         id="g5286"
         transform="matrix(3.4694116,0,0,3.4694116,587.86304,-494.93216)">
        <g
           id="g5272">
          <circle
             id="circle5274"
             r="17.294001"
             cy="45.914001"
             cx="59.992001"
             enable-background="new    "
             style="opacity:0.4;fill:#dd4815" />
          <circle
             id="circle5276"
             r="17.294001"
             cy="45.914001"
             cx="59.992001"
             enable-background="new    "
             style="opacity:0.3;fill:#dd4815" />
        </g>
        <circle
           id="circle5278"
           r="9.5719995"
           cy="45.952"
           cx="60.032001"
           style="fill:#dd4815" />
      </g>
      <rect
         y="124.36237"
         x="320"
         height="480"
         width="800"
         id="rect5292"
         style="color:#000000;clip-rule:nonzero;display:inline;overflow:visible;visibility:visible;opacity:1;isolation:auto;mix-blend-mode:normal;color-interpolation:sRGB;color-interpolation-filters:linearRGB;solid-color:#000000;solid-opacity:1;fill:#ffffff;fill-opacity:1;fill-rule:evenodd;stroke:none;stroke-width:2;stroke-linecap:round;stroke-linejoin:miter;stroke-miterlimit:4;stroke-dasharray:none;stroke-dashoffset:0;stroke-opacity:1;marker:none;color-rendering:auto;image-rendering:auto;shape-rendering:auto;text-rendering:auto;enable-background:accumulate" />
      <g
         style="font-style:normal;font-variant:normal;font-weight:300;font-stretch:normal;font-size:12.5px;line-height:125%;font-family:Ubuntu;-inkscape-font-specification:'Ubuntu, Light';text-align:start;letter-spacing:0px;word-spacing:0px;writing-mode:lr-tb;text-anchor:start;fill:#5d5d5d;fill-opacity:1;stroke:none;stroke-width:1px;stroke-linecap:butt;stroke-linejoin:miter;stroke-opacity:1"
         id="text5294"
         transform="matrix(4,0,0,4,-360,-1957.0866)">
        <path
           d="m 295.73779,543.48624 q 0.225,-0.6 0.625,-1.35 0.4125,-0.75 0.925,-1.5375 0.5125,-0.7875 1.1125,-1.5375 0.6,-0.7625 1.2125,-1.3875 l 0.85,0 0,5.65 1.075,0 0,0.6625 -1.075,0 0,2.35 -0.8,0 0,-2.35 -3.925,0 0,-0.5 z m 3.925,-0.1625 0,-4.7375 q -0.4375,0.45 -0.8875,1.0375 -0.45,0.5875 -0.8625,1.225 -0.4,0.625 -0.75,1.2625 -0.35,0.6375 -0.5875,1.2125 l 3.0875,0 z"
           id="path10563" />
        <path
           d="m 302.90596,542.01124 q 0,-2.2 0.725,-3.3625 0.725,-1.1625 2.0625,-1.1625 1.325,0 2.05,1.1625 0.7375,1.1625 0.7375,3.3625 0,2.1875 -0.7375,3.35 -0.725,1.1625 -2.05,1.1625 -1.325,0 -2.0625,-1.1625 -0.725,-1.1625 -0.725,-3.35 z m 4.6875,0 q 0,-0.75 -0.1,-1.425 -0.0875,-0.6875 -0.3125,-1.2125 -0.225,-0.525 -0.5875,-0.8375 -0.3625,-0.3125 -0.9,-0.3125 -0.55,0 -0.9125,0.3125 -0.3625,0.3125 -0.5875,0.8375 -0.2125,0.525 -0.3125,1.2125 -0.0875,0.675 -0.0875,1.425 0,0.75 0.0875,1.4375 0.1,0.675 0.3125,1.2 0.225,0.5125 0.5875,0.825 0.3625,0.3125 0.9125,0.3125 0.5375,0 0.9,-0.3125 0.3625,-0.3125 0.5875,-0.825 0.225,-0.525 0.3125,-1.2 0.1,-0.6875 0.1,-1.4375 z"
           id="path10565" />
        <path
           d="m 310.92412,542.37374 2.4625,0 0,-2.7125 0.725,0 0,2.7125 2.4625,0 0,0.7 -2.4625,0 0,2.725 -0.725,0 0,-2.725 -2.4625,0 0,-0.7 z"
           id="path10567" />
        <path
           d="m 323.97979,539.82374 q 0,0.4875 -0.175,0.925 -0.175,0.425 -0.475,0.825 -0.2875,0.4 -0.6625,0.775 -0.375,0.375 -0.7625,0.75 -0.325,0.3125 -0.6375,0.6375 -0.3,0.3125 -0.55,0.6375 -0.2375,0.3125 -0.3875,0.625 -0.1375,0.3 -0.1375,0.6 l 0,0.025 4.0875,0 0,0.7125 -4.9875,0 q 0,-0.025 -0.0125,-0.0875 0,-0.075 0,-0.2125 0,-0.5875 0.2125,-1.0875 0.2125,-0.5125 0.5375,-0.9625 0.3375,-0.45 0.7375,-0.8375 0.4125,-0.3875 0.7875,-0.75 0.3125,-0.3 0.5875,-0.575 0.2875,-0.2875 0.5,-0.5875 0.2125,-0.3 0.3375,-0.6375 0.125,-0.3375 0.125,-0.7375 0,-0.875 -0.475,-1.25 -0.4625,-0.3875 -1.175,-0.3875 -0.4,0 -0.7125,0.1 -0.3125,0.1 -0.55,0.2375 -0.225,0.125 -0.3875,0.2625 -0.1625,0.1375 -0.2375,0.2125 l -0.425,-0.5625 q 0.075,-0.0875 0.2625,-0.25 0.2,-0.175 0.4875,-0.3375 0.3,-0.1625 0.6875,-0.275 0.3875,-0.125 0.8625,-0.125 1.2625,0 1.9,0.625 0.6375,0.6125 0.6375,1.7125 z"
           id="path10569" />
        <path
           d="m 331.74834,543.68624 5.65,0 0,0.7 -5.65,0 0,-0.7 z m 0,-2.625 5.65,0 0,0.7 -5.65,0 0,-0.7 z"
           id="path10571" />
        <path
           d="m 344.69189,542.34624 q 0.315,-0.84 0.875,-1.89 0.5775,-1.05 1.295,-2.1525 0.7175,-1.1025 1.5575,-2.1525 0.84,-1.0675 1.6975,-1.9425 l 1.19,0 0,7.91 1.505,0 0,0.9275 -1.505,0 0,3.29 -1.12,0 0,-3.29 -5.495,0 0,-0.7 z m 5.495,-0.2275 0,-6.6325 q -0.6125,0.63 -1.2425,1.4525 -0.63,0.8225 -1.2075,1.715 -0.56,0.875 -1.05,1.7675 -0.49,0.8925 -0.8225,1.6975 l 4.3225,0 z"
           style="font-size:17.5px;fill:#5d5d5d;fill-opacity:1"
           id="path10573" />
        <path
           d="m 361.67482,537.21874 q 0,0.6825 -0.245,1.295 -0.245,0.595 -0.665,1.155 -0.4025,0.56 -0.9275,1.085 -0.525,0.525 -1.0675,1.05 -0.455,0.4375 -0.8925,0.8925 -0.42,0.4375 -0.77,0.8925 -0.3325,0.4375 -0.5425,0.875 -0.1925,0.42 -0.1925,0.84 l 0,0.035 5.7225,0 0,0.9975 -6.9825,0 q 0,-0.035 -0.0175,-0.1225 0,-0.105 0,-0.2975 0,-0.8225 0.2975,-1.5225 0.2975,-0.7175 0.7525,-1.3475 0.4725,-0.63 1.0325,-1.1725 0.5775,-0.5425 1.1025,-1.05 0.4375,-0.42 0.8225,-0.805 0.4025,-0.4025 0.7,-0.8225 0.2975,-0.42 0.4725,-0.8925 0.175,-0.4725 0.175,-1.0325 0,-1.225 -0.665,-1.75 -0.6475,-0.5425 -1.645,-0.5425 -0.56,0 -0.9975,0.14 -0.4375,0.14 -0.77,0.3325 -0.315,0.175 -0.5425,0.3675 -0.2275,0.1925 -0.3325,0.2975 l -0.595,-0.7875 q 0.105,-0.1225 0.3675,-0.35 0.28,-0.245 0.6825,-0.4725 0.42,-0.2275 0.9625,-0.385 0.5425,-0.175 1.2075,-0.175 1.7675,0 2.66,0.875 0.8925,0.8575 0.8925,2.3975 z"
           style="font-size:17.5px;fill:#5d5d5d;fill-opacity:1"
           id="path10575" />
      </g>
      <g
         style="font-style:normal;font-variant:normal;font-weight:300;font-stretch:normal;font-size:12.5px;line-height:125%;font-family:Ubuntu;-inkscape-font-specification:'Ubuntu, Light';text-align:start;letter-spacing:0px;word-spacing:0px;writing-mode:lr-tb;text-anchor:start;fill:#5d5d5d;fill-opacity:1;stroke:none;stroke-width:1px;stroke-linecap:butt;stroke-linejoin:miter;stroke-opacity:1"
         id="text5302"
         transform="matrix(4,0,0,4,-360,-1957.0866)">
        <path
           d="m 298.96283,583.48624 q 0.225,-0.6 0.625,-1.35 0.4125,-0.75 0.925,-1.5375 0.5125,-0.7875 1.1125,-1.5375 0.6,-0.7625 1.2125,-1.3875 l 0.85,0 0,5.65 1.075,0 0,0.6625 -1.075,0 0,2.35 -0.8,0 0,-2.35 -3.925,0 0,-0.5 z m 3.925,-0.1625 0,-4.7375 q -0.4375,0.45 -0.8875,1.0375 -0.45,0.5875 -0.8625,1.225 -0.4,0.625 -0.75,1.2625 -0.35,0.6375 -0.5875,1.2125 l 3.0875,0 z"
           id="path10548" />
        <path
           d="m 306.13099,582.01124 q 0,-2.2 0.725,-3.3625 0.725,-1.1625 2.0625,-1.1625 1.325,0 2.05,1.1625 0.7375,1.1625 0.7375,3.3625 0,2.1875 -0.7375,3.35 -0.725,1.1625 -2.05,1.1625 -1.325,0 -2.0625,-1.1625 -0.725,-1.1625 -0.725,-3.35 z m 4.6875,0 q 0,-0.75 -0.1,-1.425 -0.0875,-0.6875 -0.3125,-1.2125 -0.225,-0.525 -0.5875,-0.8375 -0.3625,-0.3125 -0.9,-0.3125 -0.55,0 -0.9125,0.3125 -0.3625,0.3125 -0.5875,0.8375 -0.2125,0.525 -0.3125,1.2125 -0.0875,0.675 -0.0875,1.425 0,0.75 0.0875,1.4375 0.1,0.675 0.3125,1.2 0.225,0.5125 0.5875,0.825 0.3625,0.3125 0.9125,0.3125 0.5375,0 0.9,-0.3125 0.3625,-0.3125 0.5875,-0.825 0.225,-0.525 0.3125,-1.2 0.1,-0.6875 0.1,-1.4375 z"
           id="path10550" />
        <path
           d="m 313.79916,582.32374 2.825,0 0,0.7875 -2.825,0 0,-0.7875 z"
           id="path10552" />
        <path
           d="m 323.66478,579.82374 q 0,0.4875 -0.175,0.925 -0.175,0.425 -0.475,0.825 -0.2875,0.4 -0.6625,0.775 -0.375,0.375 -0.7625,0.75 -0.325,0.3125 -0.6375,0.6375 -0.3,0.3125 -0.55,0.6375 -0.2375,0.3125 -0.3875,0.625 -0.1375,0.3 -0.1375,0.6 l 0,0.025 4.0875,0 0,0.7125 -4.9875,0 q 0,-0.025 -0.0125,-0.0875 0,-0.075 0,-0.2125 0,-0.5875 0.2125,-1.0875 0.2125,-0.5125 0.5375,-0.9625 0.3375,-0.45 0.7375,-0.8375 0.4125,-0.3875 0.7875,-0.75 0.3125,-0.3 0.5875,-0.575 0.2875,-0.2875 0.5,-0.5875 0.2125,-0.3 0.3375,-0.6375 0.125,-0.3375 0.125,-0.7375 0,-0.875 -0.475,-1.25 -0.4625,-0.3875 -1.175,-0.3875 -0.4,0 -0.7125,0.1 -0.3125,0.1 -0.55,0.2375 -0.225,0.125 -0.3875,0.2625 -0.1625,0.1375 -0.2375,0.2125 l -0.425,-0.5625 q 0.075,-0.0875 0.2625,-0.25 0.2,-0.175 0.4875,-0.3375 0.3,-0.1625 0.6875,-0.275 0.3875,-0.125 0.8625,-0.125 1.2625,0 1.9,0.625 0.6375,0.6125 0.6375,1.7125 z"
           id="path10554" />
        <path
           d="m 331.43334,583.68624 5.65,0 0,0.7 -5.65,0 0,-0.7 z m 0,-2.625 5.65,0 0,0.7 -5.65,0 0,-0.7 z"
           id="path10556" />
        <path
           d="m 347.61439,585.54874 q 1.6625,0 2.38,-0.6825 0.7175,-0.7 0.7175,-1.8725 0,-0.77 -0.2975,-1.2775 -0.28,-0.5075 -0.7875,-0.805 -0.49,-0.315 -1.155,-0.4375 -0.6475,-0.14 -1.3825,-0.14 l -0.175,0 0,-0.945 0.4025,0 q 0.4725,0 0.9625,-0.0875 0.5075,-0.105 0.91,-0.3675 0.42,-0.2625 0.6825,-0.7 0.28,-0.4375 0.28,-1.12 0,-0.5775 -0.1925,-0.98 -0.1925,-0.42 -0.525,-0.665 -0.315,-0.245 -0.7525,-0.35 -0.42,-0.1225 -0.8925,-0.1225 -0.945,0 -1.47,0.2625 -0.525,0.2625 -0.8575,0.49 l -0.49,-0.8925 q 0.175,-0.1225 0.4375,-0.28 0.28,-0.1575 0.6475,-0.2975 0.3675,-0.14 0.805,-0.2275 0.455,-0.105 0.98,-0.105 0.91,0 1.5575,0.2275 0.665,0.2275 1.1025,0.6475 0.4375,0.4025 0.6475,0.98 0.21,0.56 0.21,1.225 0,1.0675 -0.5775,1.75 -0.56,0.665 -1.4525,0.9625 0.49,0.1225 0.945,0.385 0.4725,0.245 0.84,0.6475 0.3675,0.385 0.595,0.945 0.2275,0.56 0.2275,1.3125 0,0.77 -0.28,1.4175 -0.2625,0.6475 -0.805,1.1375 -0.525,0.4725 -1.3475,0.7525 -0.8225,0.2625 -1.925,0.2625 -0.5775,0 -1.0675,-0.0875 -0.4725,-0.07 -0.84,-0.175 -0.3675,-0.105 -0.63,-0.21 -0.245,-0.105 -0.3675,-0.175 l 0.2975,-1.015 q 0.105,0.07 0.35,0.175 0.245,0.105 0.5775,0.21 0.35,0.0875 0.77,0.1575 0.4375,0.07 0.945,0.07 z"
           style="font-size:17.5px"
           id="path10558" />
        <path
           d="m 358.31482,586.59874 q -0.8575,0 -1.5575,-0.245 -0.6825,-0.245 -1.19,-0.6825 -0.49,-0.455 -0.77,-1.05 -0.2625,-0.6125 -0.2625,-1.33 0,-0.6125 0.175,-1.1025 0.175,-0.5075 0.455,-0.8925 0.2975,-0.4025 0.665,-0.7 0.385,-0.315 0.805,-0.5425 -1.0675,-0.525 -1.4525,-1.2425 -0.385,-0.7175 -0.385,-1.5575 0,-0.7525 0.2625,-1.365 0.2625,-0.6125 0.7175,-1.0325 0.4725,-0.4375 1.12,-0.665 0.6475,-0.245 1.4175,-0.245 0.91,0 1.575,0.28 0.665,0.2625 1.085,0.7 0.4375,0.4375 0.63,0.9975 0.21,0.56 0.21,1.155 0,0.5775 -0.175,1.0675 -0.175,0.4725 -0.455,0.875 -0.28,0.385 -0.63,0.6825 -0.35,0.2975 -0.6825,0.5075 1.225,0.525 1.715,1.3125 0.5075,0.7875 0.5075,1.6625 0,0.7525 -0.28,1.3825 -0.2625,0.63 -0.7525,1.085 -0.49,0.4375 -1.19,0.6825 -0.7,0.2625 -1.5575,0.2625 z m 2.5725,-3.3075 q 0,-0.7525 -0.2975,-1.225 -0.28,-0.4725 -0.7525,-0.77 -0.455,-0.2975 -1.05,-0.4725 -0.5775,-0.175 -1.1725,-0.3675 -0.8925,0.42 -1.3825,1.1375 -0.49,0.7 -0.49,1.6975 0,0.49 0.1575,0.91 0.1575,0.42 0.4725,0.735 0.3325,0.315 0.805,0.5075 0.49,0.175 1.1375,0.175 0.6475,0 1.12,-0.175 0.49,-0.1925 0.805,-0.5075 0.3325,-0.315 0.49,-0.735 0.1575,-0.42 0.1575,-0.91 z m -4.9,-6.16 q 0,0.49 0.105,0.8925 0.1225,0.4025 0.4375,0.735 0.315,0.315 0.875,0.595 0.56,0.2625 1.47,0.5075 0.805,-0.455 1.2775,-1.12 0.4725,-0.665 0.4725,-1.6625 0,-0.4025 -0.14,-0.7875 -0.1225,-0.385 -0.4025,-0.6825 -0.2625,-0.315 -0.7,-0.49 -0.4375,-0.1925 -1.0675,-0.1925 -0.5775,0 -1.015,0.175 -0.4375,0.175 -0.735,0.49 -0.28,0.2975 -0.4375,0.7 -0.14,0.4025 -0.14,0.84 z"
           style="font-size:17.5px"
           id="path10560" />
      </g>
      <g
         style="font-style:normal;font-variant:normal;font-weight:300;font-stretch:normal;font-size:12.5px;line-height:125%;font-family:Ubuntu;-inkscape-font-specification:'Ubuntu, Light';text-align:start;letter-spacing:0px;word-spacing:0px;writing-mode:lr-tb;text-anchor:start;fill:#5d5d5d;fill-opacity:1;stroke:none;stroke-width:1px;stroke-linecap:butt;stroke-linejoin:miter;stroke-opacity:1"
         id="text5310"
         transform="matrix(4,0,0,4,-360,-1957.0866)">
        <path
           d="m 317.15139,619.82374 q 0,0.4875 -0.175,0.925 -0.175,0.425 -0.475,0.825 -0.2875,0.4 -0.6625,0.775 -0.375,0.375 -0.7625,0.75 -0.325,0.3125 -0.6375,0.6375 -0.3,0.3125 -0.55,0.6375 -0.2375,0.3125 -0.3875,0.625 -0.1375,0.3 -0.1375,0.6 l 0,0.025 4.0875,0 0,0.7125 -4.9875,0 q 0,-0.025 -0.0125,-0.0875 0,-0.075 0,-0.2125 0,-0.5875 0.2125,-1.0875 0.2125,-0.5125 0.5375,-0.9625 0.3375,-0.45 0.7375,-0.8375 0.4125,-0.3875 0.7875,-0.75 0.3125,-0.3 0.5875,-0.575 0.2875,-0.2875 0.5,-0.5875 0.2125,-0.3 0.3375,-0.6375 0.125,-0.3375 0.125,-0.7375 0,-0.875 -0.475,-1.25 -0.4625,-0.3875 -1.175,-0.3875 -0.4,0 -0.7125,0.1 -0.3125,0.1 -0.55,0.2375 -0.225,0.125 -0.3875,0.2625 -0.1625,0.1375 -0.2375,0.2125 l -0.425,-0.5625 q 0.075,-0.0875 0.2625,-0.25 0.2,-0.175 0.4875,-0.3375 0.3,-0.1625 0.6875,-0.275 0.3875,-0.125 0.8625,-0.125 1.2625,0 1.9,0.625 0.6375,0.6125 0.6375,1.7125 z"
           id="path10537" />
        <path
           d="m 320.20705,622.37374 2.4625,0 0,-2.7125 0.725,0 0,2.7125 2.4625,0 0,0.7 -2.4625,0 0,2.725 -0.725,0 0,-2.725 -2.4625,0 0,-0.7 z"
           id="path10539" />
        <path
           d="m 333.26271,619.82374 q 0,0.4875 -0.175,0.925 -0.175,0.425 -0.475,0.825 -0.2875,0.4 -0.6625,0.775 -0.375,0.375 -0.7625,0.75 -0.325,0.3125 -0.6375,0.6375 -0.3,0.3125 -0.55,0.6375 -0.2375,0.3125 -0.3875,0.625 -0.1375,0.3 -0.1375,0.6 l 0,0.025 4.0875,0 0,0.7125 -4.9875,0 q 0,-0.025 -0.0125,-0.0875 0,-0.075 0,-0.2125 0,-0.5875 0.2125,-1.0875 0.2125,-0.5125 0.5375,-0.9625 0.3375,-0.45 0.7375,-0.8375 0.4125,-0.3875 0.7875,-0.75 0.3125,-0.3 0.5875,-0.575 0.2875,-0.2875 0.5,-0.5875 0.2125,-0.3 0.3375,-0.6375 0.125,-0.3375 0.125,-0.7375 0,-0.875 -0.475,-1.25 -0.4625,-0.3875 -1.175,-0.3875 -0.4,0 -0.7125,0.1 -0.3125,0.1 -0.55,0.2375 -0.225,0.125 -0.3875,0.2625 -0.1625,0.1375 -0.2375,0.2125 l -0.425,-0.5625 q 0.075,-0.0875 0.2625,-0.25 0.2,-0.175 0.4875,-0.3375 0.3,-0.1625 0.6875,-0.275 0.3875,-0.125 0.8625,-0.125 1.2625,0 1.9,0.625 0.6375,0.6125 0.6375,1.7125 z"
           id="path10541" />
        <path
           d="m 341.03127,623.68624 5.65,0 0,0.7 -5.65,0 0,-0.7 z m 0,-2.625 5.65,0 0,0.7 -5.65,0 0,-0.7 z"
           id="path10543" />
        <path
           d="m 353.97482,622.34624 q 0.315,-0.84 0.875,-1.89 0.5775,-1.05 1.295,-2.1525 0.7175,-1.1025 1.5575,-2.1525 0.84,-1.0675 1.6975,-1.9425 l 1.19,0 0,7.91 1.505,0 0,0.9275 -1.505,0 0,3.29 -1.12,0 0,-3.29 -5.495,0 0,-0.7 z m 5.495,-0.2275 0,-6.6325 q -0.6125,0.63 -1.2425,1.4525 -0.63,0.8225 -1.2075,1.715 -0.56,0.875 -1.05,1.7675 -0.49,0.8925 -0.8225,1.6975 l 4.3225,0 z"
           style="font-size:17.5px;fill:#5d5d5d;fill-opacity:1"
           id="path10545" />
      </g>
      <g
         transform="matrix(0.83333324,0,0,0.83333324,416.5476,98.94136)"
         id="layer1-3">
        <rect
           style="color:#000000;display:inline;overflow:visible;visibility:visible;fill:none;stroke:none;stroke-width:4;marker:none;enable-background:accumulate"
           id="rect4782"
           width="96"
           height="96"
           x="78.505051"
           y="-28.142857"
           transform="matrix(0,1,-1,0,0,0)" />
        <path
           id="path4643"
           d="m -43.869141,86.503906 -0.01172,0.002 c -5.032775,0.05818 -8.713619,-0.120274 -11.72461,1.541016 -1.505495,0.830645 -2.696806,2.235578 -3.355469,3.990234 -0.658662,1.754657 -0.896484,3.836361 -0.896484,6.466797 l 0,56.001957 c 0,2.63043 0.237822,4.71214 0.896484,6.4668 0.658663,1.75465 1.849974,3.15959 3.355469,3.99023 3.010991,1.66129 6.691834,1.48479 11.72461,1.54297 l 0.01172,0 48.0234379,0 0.011719,0 c 5.0327754,-0.0582 8.7136191,0.11832 11.7246091,-1.54297 1.505495,-0.83064 2.696807,-2.23558 3.355469,-3.99023 0.658662,-1.75466 0.896484,-3.83637 0.896484,-6.4668 l 0,-56.001957 c 0,-2.630436 -0.237822,-4.71214 -0.896484,-6.466797 C 18.587432,90.282453 17.39612,88.87752 15.890625,88.046875 12.879635,86.385585 9.1987906,86.564043 4.1660156,86.505859 l -0.011719,-0.002 -48.0234376,0 z m 0.01172,4 48.0000001,0 c 5.0382536,0.05877 8.3518719,0.236877 9.8164059,1.044922 0.733638,0.404779 1.152716,0.854907 1.542969,1.894531 0.390254,1.039624 0.640625,2.690982 0.640625,5.060547 l 0,56.001954 c 0,2.36956 -0.250371,4.02092 -0.640625,5.06055 -0.390253,1.03962 -0.809331,1.48975 -1.542969,1.89453 -1.464534,0.80804 -4.7781526,0.98616 -9.8164059,1.04492 l -47.9765621,0 -0.02344,0 c -5.038253,-0.0588 -8.351872,-0.23688 -9.816406,-1.04492 -0.733637,-0.40478 -1.150762,-0.85491 -1.541016,-1.89453 -0.390253,-1.03963 -0.642578,-2.69099 -0.642578,-5.06055 l 0,-56.001954 c 0,-2.369565 0.252325,-4.020923 0.642578,-5.060547 0.390254,-1.039624 0.807379,-1.489752 1.541016,-1.894531 1.464534,-0.808045 4.778153,-0.986156 9.816406,-1.044922 z"
           style="color:#000000;font-style:normal;font-variant:normal;font-weight:normal;font-stretch:normal;font-size:medium;line-height:normal;font-family:sans-serif;text-indent:0;text-align:start;text-decoration:none;text-decoration-line:none;text-decoration-style:solid;text-decoration-color:#000000;letter-spacing:normal;word-spacing:normal;text-transform:none;direction:ltr;block-progression:tb;writing-mode:lr-tb;baseline-shift:baseline;text-anchor:start;white-space:normal;clip-rule:nonzero;display:inline;overflow:visible;visibility:visible;opacity:1;isolation:auto;mix-blend-mode:normal;color-interpolation:sRGB;color-interpolation-filters:linearRGB;solid-color:#000000;solid-opacity:1;fill:#808080;fill-opacity:1;fill-rule:nonzero;stroke:none;stroke-width:4.00000048;stroke-linecap:butt;stroke-linejoin:miter;stroke-miterlimit:4;stroke-dasharray:none;stroke-dashoffset:0;stroke-opacity:1;marker:none;color-rendering:auto;image-rendering:auto;shape-rendering:auto;text-rendering:auto;enable-background:accumulate" />
        <path
           id="path4041-9"
           d="m 3.96512,110.90153 -27.17969,23.80469 -15.66211,-13.4336 -2.88477,3.26172 18.54102,19.50782 29.26562,-30.79493 -2.08007,-2.3457 z"
           style="font-style:normal;font-variant:normal;font-weight:normal;font-stretch:normal;font-size:15px;line-height:125%;font-family:Ubuntu;-inkscape-font-specification:Ubuntu;text-align:center;letter-spacing:0px;word-spacing:0px;writing-mode:lr-tb;text-anchor:middle;display:inline;fill:#808080;fill-opacity:1;stroke:none;stroke-width:0.99999994" />
      </g>
      <g
         transform="matrix(0.83333332,0,0,0.83333332,416.5476,258.94144)"
         id="layer1-6">
        <rect
           style="color:#000000;display:inline;overflow:visible;visibility:visible;fill:none;stroke:none;stroke-width:4;marker:none;enable-background:accumulate"
           id="rect4782-0"
           width="96"
           height="96"
           x="78.505051"
           y="-28.142857"
           transform="matrix(0,1,-1,0,0,0)" />
        <path
           id="path4643-1"
           d="m -43.869141,86.503906 -0.01172,0.002 c -5.032775,0.05818 -8.713619,-0.120274 -11.72461,1.541016 -1.505495,0.830645 -2.696806,2.235578 -3.355469,3.990234 -0.658662,1.754657 -0.896484,3.836361 -0.896484,6.466797 l 0,56.001957 c 0,2.63043 0.237822,4.71214 0.896484,6.4668 0.658663,1.75465 1.849974,3.15959 3.355469,3.99023 3.010991,1.66129 6.691834,1.48479 11.72461,1.54297 l 0.01172,0 48.0234379,0 0.011719,0 c 5.0327754,-0.0582 8.7136191,0.11832 11.7246091,-1.54297 1.505495,-0.83064 2.696807,-2.23558 3.355469,-3.99023 0.658662,-1.75466 0.896484,-3.83637 0.896484,-6.4668 l 0,-56.001957 c 0,-2.630436 -0.237822,-4.71214 -0.896484,-6.466797 C 18.587432,90.282453 17.39612,88.87752 15.890625,88.046875 12.879635,86.385585 9.1987906,86.564043 4.1660156,86.505859 l -0.011719,-0.002 -48.0234376,0 z m 0.01172,4 48.0000001,0 c 5.0382536,0.05877 8.3518719,0.236877 9.8164059,1.044922 0.733638,0.404779 1.152716,0.854907 1.542969,1.894531 0.390254,1.039624 0.640625,2.690982 0.640625,5.060547 l 0,56.001954 c 0,2.36956 -0.250371,4.02092 -0.640625,5.06055 -0.390253,1.03962 -0.809331,1.48975 -1.542969,1.89453 -1.464534,0.80804 -4.7781526,0.98616 -9.8164059,1.04492 l -47.9765621,0 -0.02344,0 c -5.038253,-0.0588 -8.351872,-0.23688 -9.816406,-1.04492 -0.733637,-0.40478 -1.150762,-0.85491 -1.541016,-1.89453 -0.390253,-1.03963 -0.642578,-2.69099 -0.642578,-5.06055 l 0,-56.001954 c 0,-2.369565 0.252325,-4.020923 0.642578,-5.060547 0.390254,-1.039624 0.807379,-1.489752 1.541016,-1.894531 1.464534,-0.808045 4.778153,-0.986156 9.816406,-1.044922 z"
           style="color:#000000;font-style:normal;font-variant:normal;font-weight:normal;font-stretch:normal;font-size:medium;line-height:normal;font-family:sans-serif;text-indent:0;text-align:start;text-decoration:none;text-decoration-line:none;text-decoration-style:solid;text-decoration-color:#000000;letter-spacing:normal;word-spacing:normal;text-transform:none;direction:ltr;block-progression:tb;writing-mode:lr-tb;baseline-shift:baseline;text-anchor:start;white-space:normal;clip-rule:nonzero;display:inline;overflow:visible;visibility:visible;opacity:1;isolation:auto;mix-blend-mode:normal;color-interpolation:sRGB;color-interpolation-filters:linearRGB;solid-color:#000000;solid-opacity:1;fill:#808080;fill-opacity:1;fill-rule:nonzero;stroke:none;stroke-width:4.00000048;stroke-linecap:butt;stroke-linejoin:miter;stroke-miterlimit:4;stroke-dasharray:none;stroke-dashoffset:0;stroke-opacity:1;marker:none;color-rendering:auto;image-rendering:auto;shape-rendering:auto;text-rendering:auto;enable-background:accumulate" />
      </g>
      <g
         id="g5482"
         transform="matrix(0.83333332,0,0,0.83333332,416.5476,418.94144)">
        <rect
           transform="matrix(0,1,-1,0,0,0)"
           y="-28.142857"
           x="78.505051"
           height="96"
           width="96"
           id="rect5484"
           style="color:#000000;display:inline;overflow:visible;visibility:visible;fill:none;stroke:none;stroke-width:4;marker:none;enable-background:accumulate" />
        <path
           style="color:#000000;font-style:normal;font-variant:normal;font-weight:normal;font-stretch:normal;font-size:medium;line-height:normal;font-family:sans-serif;text-indent:0;text-align:start;text-decoration:none;text-decoration-line:none;text-decoration-style:solid;text-decoration-color:#000000;letter-spacing:normal;word-spacing:normal;text-transform:none;direction:ltr;block-progression:tb;writing-mode:lr-tb;baseline-shift:baseline;text-anchor:start;white-space:normal;clip-rule:nonzero;display:inline;overflow:visible;visibility:visible;opacity:1;isolation:auto;mix-blend-mode:normal;color-interpolation:sRGB;color-interpolation-filters:linearRGB;solid-color:#000000;solid-opacity:1;fill:#808080;fill-opacity:1;fill-rule:nonzero;stroke:none;stroke-width:4.00000048;stroke-linecap:butt;stroke-linejoin:miter;stroke-miterlimit:4;stroke-dasharray:none;stroke-dashoffset:0;stroke-opacity:1;marker:none;color-rendering:auto;image-rendering:auto;shape-rendering:auto;text-rendering:auto;enable-background:accumulate"
           d="m -43.869141,86.503906 -0.01172,0.002 c -5.032775,0.05818 -8.713619,-0.120274 -11.72461,1.541016 -1.505495,0.830645 -2.696806,2.235578 -3.355469,3.990234 -0.658662,1.754657 -0.896484,3.836361 -0.896484,6.466797 l 0,56.001957 c 0,2.63043 0.237822,4.71214 0.896484,6.4668 0.658663,1.75465 1.849974,3.15959 3.355469,3.99023 3.010991,1.66129 6.691834,1.48479 11.72461,1.54297 l 0.01172,0 48.0234379,0 0.011719,0 c 5.0327754,-0.0582 8.7136191,0.11832 11.7246091,-1.54297 1.505495,-0.83064 2.696807,-2.23558 3.355469,-3.99023 0.658662,-1.75466 0.896484,-3.83637 0.896484,-6.4668 l 0,-56.001957 c 0,-2.630436 -0.237822,-4.71214 -0.896484,-6.466797 C 18.587432,90.282453 17.39612,88.87752 15.890625,88.046875 12.879635,86.385585 9.1987906,86.564043 4.1660156,86.505859 l -0.011719,-0.002 -48.0234376,0 z m 0.01172,4 48.0000001,0 c 5.0382536,0.05877 8.3518719,0.236877 9.8164059,1.044922 0.733638,0.404779 1.152716,0.854907 1.542969,1.894531 0.390254,1.039624 0.640625,2.690982 0.640625,5.060547 l 0,56.001954 c 0,2.36956 -0.250371,4.02092 -0.640625,5.06055 -0.390253,1.03962 -0.809331,1.48975 -1.542969,1.89453 -1.464534,0.80804 -4.7781526,0.98616 -9.8164059,1.04492 l -47.9765621,0 -0.02344,0 c -5.038253,-0.0588 -8.351872,-0.23688 -9.816406,-1.04492 -0.733637,-0.40478 -1.150762,-0.85491 -1.541016,-1.89453 -0.390253,-1.03963 -0.642578,-2.69099 -0.642578,-5.06055 l 0,-56.001954 c 0,-2.369565 0.252325,-4.020923 0.642578,-5.060547 0.390254,-1.039624 0.807379,-1.489752 1.541016,-1.894531 1.464534,-0.808045 4.778153,-0.986156 9.816406,-1.044922 z"
           id="path5486" />
      </g>
      <circle
         id="circle6222"
         r="34"
         cy="377.87701"
         cx="399.51471"
         style="opacity:0.9;fill:#dd4815" />
      <g
         id="text4884"
         style="font-style:normal;font-variant:normal;font-weight:normal;font-stretch:normal;font-size:18.22799492px;line-height:125%;font-family:Ubuntu;-inkscape-font-specification:Ubuntu;letter-spacing:0px;word-spacing:0px;fill:#ffffff;fill-opacity:1;stroke:none;stroke-width:1px;stroke-linecap:butt;stroke-linejoin:miter;stroke-opacity:1"
         transform="matrix(4,0,0,4,-396.98066,-1884.9973)">
        <path
           id="path10622"
           d="m 157.78139,559.39611 q 0,0.65621 -0.27342,1.27596 -0.25519,0.60153 -0.69266,1.20305 -0.43747,0.5833 -0.98431,1.16659 -0.54684,0.56507 -1.09368,1.11191 -0.30988,0.30988 -0.72912,0.72912 -0.40102,0.41924 -0.76558,0.87494 -0.36456,0.4557 -0.61975,0.87495 -0.23696,0.41924 -0.23696,0.72912 l 5.81473,0 0,1.44001 -7.65576,0 q -0.0182,-0.10937 -0.0182,-0.21874 0,-0.10937 0,-0.20051 0,-0.85671 0.27342,-1.58583 0.29165,-0.74735 0.74735,-1.40356 0.4557,-0.65621 1.02077,-1.2395 0.56507,-0.5833 1.11191,-1.13014 0.4557,-0.43747 0.85671,-0.85671 0.41925,-0.43747 0.72912,-0.85672 0.32811,-0.43747 0.51039,-0.89317 0.2005,-0.4557 0.2005,-0.96608 0,-0.54684 -0.18228,-0.92963 -0.16405,-0.38279 -0.4557,-0.63798 -0.29164,-0.25519 -0.69266,-0.36456 -0.38279,-0.1276 -0.82026,-0.1276 -0.52861,0 -0.96608,0.14583 -0.43748,0.14582 -0.78381,0.34633 -0.34633,0.18228 -0.58329,0.40101 -0.23697,0.20051 -0.36456,0.30988 l -0.83849,-1.20305 q 0.16405,-0.18228 0.49215,-0.43747 0.32811,-0.27342 0.78381,-0.51038 0.4557,-0.23697 1.02077,-0.40102 0.56506,-0.16405 1.22127,-0.16405 1.98685,0 2.97116,0.92963 1.00254,0.9114 1.00254,2.58837 z" />
      </g>
      <path
         style="color:#000000;font-style:normal;font-variant:normal;font-weight:normal;font-stretch:normal;font-size:medium;line-height:normal;font-family:sans-serif;text-indent:0;text-align:start;text-decoration:none;text-decoration-line:none;text-decoration-style:solid;text-decoration-color:#000000;letter-spacing:normal;word-spacing:normal;text-transform:none;direction:ltr;block-progression:tb;writing-mode:lr-tb;baseline-shift:baseline;text-anchor:start;white-space:normal;clip-rule:nonzero;display:inline;overflow:visible;visibility:visible;opacity:0.9;isolation:auto;mix-blend-mode:normal;color-interpolation:sRGB;color-interpolation-filters:linearRGB;solid-color:#000000;solid-opacity:1;fill:#ffffff;fill-opacity:1;fill-rule:evenodd;stroke:none;stroke-width:8;stroke-linecap:round;stroke-linejoin:miter;stroke-miterlimit:4;stroke-dasharray:none;stroke-dashoffset:0;stroke-opacity:1;marker:none;color-rendering:auto;image-rendering:auto;shape-rendering:auto;text-rendering:auto;enable-background:accumulate"
         d="m 220,304.36328 c -33.08971,0 -60,26.91029 -60,60 0,33.08971 26.91029,60 60,60 33.08971,0 60,-26.91029 60,-60 0,-33.08971 -26.91029,-60 -60,-60 z m 0,8 c 28.76619,0 52,23.23382 52,52 0,28.76619 -23.23381,52 -52,52 -28.76619,0 -52,-23.23381 -52,-52 0,-28.76618 23.23381,-52 52,-52 z"
         id="circle4888" />
    </g>
  </g>
</svg>
